/* XPM */
static char * ghost_up2_xpm[] = {
"32 32 59 1",
" 	c None",
".	c #F08200",
"+	c #EC8000",
"@	c #000000",
"#	c #E27A00",
"$	c #F28300",
"%	c #7E4100",
"&	c #E1884B",
"*	c #EF8B41",
"=	c #EE8F4C",
"-	c #F09151",
";	c #7E4A26",
">	c #131313",
",	c #DEDFE0",
"'	c #DEDEDE",
")	c #BBBBBB",
"!	c #D1D3D3",
"~	c #E4C6BA",
"{	c #F08000",
"]	c #F07F00",
"^	c #E0D8D5",
"/	c #DFE1E2",
"(	c #717272",
"_	c #3B3B3B",
":	c #E0E0E0",
"<	c #E6BCAA",
"[	c #D9D9D9",
"}	c #CCCCCC",
"|	c #DCDCDC",
"1	c #E4C5B8",
"2	c #F08100",
"3	c #E0D7D3",
"4	c #D1D1D1",
"5	c #CECECE",
"6	c #ECA077",
"7	c #E7B8A3",
"8	c #EC9D70",
"9	c #E8B299",
"0	c #E0D5D1",
"a	c #E0D6D3",
"b	c #E6BEAD",
"c	c #E2CEC7",
"d	c #DFDCDB",
"e	c #DEDDDD",
"f	c #E0D6D2",
"g	c #ED9969",
"h	c #EBA581",
"i	c #DEDFDF",
"j	c #EE8F4E",
"k	c #F08201",
"l	c #F17D00",
"m	c #E3CCC4",
"n	c #DFD9D6",
"o	c #EBA582",
"p	c #DEDCDC",
"q	c #DFDBDA",
"r	c #DEDDDC",
"s	c #EE9153",
"t	c #E3CAC1",
"                                ",
"                                ",
"                                ",
"             .......            ",
"             +......            ",
"          @@@#.....$%@@@        ",
"          @@@&*...=-;@@>        ",
"       ,')@@@!~{.]^/(@@_:       ",
"      .<'[}}}|12.]3'4}}5,6.     ",
"      .7''''''12.]3''''',8.     ",
"      .7''''''12.]3''''',8.     ",
"      .90^'''ab2.{c0d''efg.     ",
"      .2]hi',j{k.k]lm''nl2.     ",
"      ...opqrs.....{tqqa{..     ",
"    ......222.......2222.....   ",
"    .........................   ",
"    .........................   ",
"    .........................   ",
"    .........................   ",
"    .........................   ",
"    .........................   ",
"    .........................   ",
"    .........................   ",
"    .........................   ",
"    .........................   ",
"    ...  ......   ......  ...   ",
"    .      ....   ....     ..   ",
"    .      ....   ....     ..   ",
"                                ",
"                                ",
"                                ",
"                                "};
