/* XPM */
static char * ghost_orange_right_xpm[] = {
"32 32 69 1",
" 	c None",
".	c #F08200",
"+	c #F08100",
"@	c #F08201",
"#	c #EBA27B",
"$	c #E5C4B7",
"%	c #E4C5B8",
"&	c #EF8831",
"*	c #F08000",
"=	c #E6BBA9",
"-	c #E6BFAF",
";	c #F07F00",
">	c #E9B096",
",	c #DEDEDF",
"'	c #DEDEDE",
")	c #DEDFE0",
"!	c #EF8A3D",
"~	c #E1D3CE",
"{	c #E1D4D0",
"]	c #E9B197",
"^	c #E4C7BC",
"/	c #DEDFDF",
"(	c #E7B7A2",
"_	c #E8B59E",
":	c #EF8D45",
"<	c #EF8939",
"[	c #E8B49C",
"}	c #E0D8D5",
"|	c #DFD9D6",
"1	c #E8B39B",
"2	c #E8B49D",
"3	c #DFD9D7",
"4	c #DDDDDD",
"5	c #DBDBDB",
"6	c #DBDBDC",
"7	c #DBDDDD",
"8	c #EC9764",
"9	c #EE9154",
"0	c #DEE0E0",
"a	c #DCDCDC",
"b	c #C4C4C4",
"c	c #000000",
"d	c #DC7700",
"e	c #DFDFDF",
"f	c #838383",
"g	c #848484",
"h	c #341700",
"i	c #F18300",
"j	c #E8B59F",
"k	c #E3C9BF",
"l	c #D1D1D1",
"m	c #9FA0A1",
"n	c #AD632A",
"o	c #AD5C00",
"p	c #E67C00",
"q	c #EF8A3C",
"r	c #E7B9A5",
"s	c #B7B7B7",
"t	c #A39A96",
"u	c #AF5B00",
"v	c #B25F00",
"w	c #F18200",
"x	c #EF8B3D",
"y	c #F17F00",
"z	c #EBA47F",
"A	c #E4C8BD",
"B	c #E3C9BE",
"C	c #EF8833",
"D	c #E5C0B1",
"                                ",
"                                ",
"                                ",
"             .......            ",
"             .......            ",
"         ..............         ",
"         ..............         ",
"       ...++++......@++++       ",
"      ....#$$%&.....*=$$-;.     ",
"      ....>,')!.....;~''{;.     ",
"      ..+]^''/(_:..<[}''|12     ",
"      ..*3''45678..90''a566     ",
"      ..*|''bcccd..9)'efccc     ",
"      ..*|''bcccd..9)'egccc     ",
"   .....*|''bcccd..90'egcchi    ",
"   .....+jk'lmnop..qr|estuvw    ",
"   .......>,')x.....;~''{y..    ",
"   .......zAABC.....*-AAD*..    ",
"   .......+***......@****@..    ",
"   .........................    ",
"   .........................    ",
"   .........................    ",
"   .........................    ",
"   .........................    ",
"   .........................    ",
"   ........ ........ .......    ",
"      ..      ....     ...      ",
"      ..      ....     ...      ",
"                                ",
"                                ",
"                                ",
"                                "};
