/* XPM */
static char * ghost_right2_xpm[] = {
"32 32 72 1",
" 	c None",
".	c #F08200",
"+	c #EF862B",
"@	c #EBA480",
"#	c #EBA47F",
"$	c #EE8F4D",
"%	c #EE9255",
"&	c #EE9152",
"*	c #DDE0E1",
"=	c #DEDFDF",
"-	c #DEE0E0",
";	c #EAAB8C",
">	c #E8B29A",
",	c #DEDFE0",
"'	c #EF8B40",
")	c #EE9154",
"!	c #EBA27C",
"~	c #DEDEDE",
"{	c #E8B59F",
"]	c #ED9866",
"^	c #ED9763",
"/	c #E7BBA9",
"(	c #EC9F74",
"_	c #F08000",
":	c #E4C5B9",
"<	c #E0E0E0",
"[	c #E0E1E1",
"}	c #DFE1E2",
"|	c #E7BEAD",
"1	c #F08100",
"2	c #DFDBD9",
"3	c #DFE1E1",
"4	c #E4C4B8",
"5	c #DCDCDC",
"6	c #3F3F3F",
"7	c #AD642E",
"8	c #DFD9D7",
"9	c #C6C6C6",
"0	c #373737",
"a	c #000000",
"b	c #A75900",
"c	c #F18200",
"d	c #C4C4C4",
"e	c #010000",
"f	c #D77400",
"g	c #E9B198",
"h	c #E4C8BD",
"i	c #DEDEDF",
"j	c #8A8A8A",
"k	c #916854",
"l	c #954F00",
"m	c #C56900",
"n	c #E5C1B2",
"o	c #E2D0CA",
"p	c #CDCDCD",
"q	c #878889",
"r	c #955424",
"s	c #934D00",
"t	c #E27A00",
"u	c #EE904F",
"v	c #DFE0E0",
"w	c #EBAB8C",
"x	c #F18300",
"y	c #E8B198",
"z	c #F08C40",
"A	c #EF8D47",
"B	c #E2CEC7",
"C	c #E2CDC5",
"D	c #E2CEC6",
"E	c #EBA27B",
"F	c #EAA888",
"G	c #EF8937",
"                                ",
"                                ",
"                                ",
"                                ",
"             .......            ",
"         ...............        ",
"         ...............        ",
"       ..................       ",
"       ...+@##$......%###       ",
"      ....&*=-;......>,=*'.     ",
"      ...)!,~={]$...^/~~=(]     ",
"      .._:,~~<[}|1._2=~~<3}     ",
"      .._4~~56667.._8~~9066     ",
"      .._4~~5aaabc._8~~daae     ",
"    ...._4~~5aaabc._8~~daaaf.   ",
"    ....1ghi5jklm..1no~pqrst.   ",
"    .....1u,~vwx....1yi~vzx..   ",
"    ......ABCDE......FDCBG...   ",
"    .......___1......1___....   ",
"    .........................   ",
"    .........................   ",
"    .........................   ",
"    .........................   ",
"    .........................   ",
"    .........................   ",
"    ...  .....    ......  ...   ",
"    .      ...    ....     ..   ",
"    .      ...    ....     ..   ",
"                                ",
"                                ",
"                                ",
"                                "};
