/* XPM */
static char * ghost_left2_xpm[] = {
"32 32 74 1",
" 	c None",
".	c #F08200",
"+	c #F08000",
"@	c #F08201",
"#	c #E7B6A1",
"$	c #DFDAD8",
"%	c #DFDAD9",
"&	c #EF862A",
"*	c #F07F00",
"=	c #E1D3CE",
"-	c #E3CCC4",
";	c #E7B7A1",
">	c #DEDEDE",
",	c #DEDEDF",
"'	c #F08419",
")	c #F17C00",
"!	c #E0D7D3",
"~	c #E2D0C9",
"{	c #E1D2CD",
"]	c #E0D8D6",
"^	c #E1D3CD",
"/	c #E1D4CF",
"(	c #EE8F4D",
"_	c #ED955C",
":	c #DEDDDC",
"<	c #DFDCDB",
"[	c #E2CEC6",
"}	c #C0C0C0",
"|	c #CACACA",
"1	c #DEDFE0",
"2	c #EE9154",
"3	c #E89056",
"4	c #BFC1C1",
"5	c #BFBFBF",
"6	c #D7D7D7",
"7	c #DFD9D6",
"8	c #000000",
"9	c #828282",
"0	c #DFDFDF",
"a	c #DC7600",
"b	c #C4C4C4",
"c	c #100400",
"d	c #848484",
"e	c #DC7700",
"f	c #F18300",
"g	c #271000",
"h	c #818181",
"i	c #DDE1E2",
"j	c #EE9255",
"k	c #000001",
"l	c #E17900",
"m	c #D8AB98",
"n	c #CFCFCF",
"o	c #D4D4D4",
"p	c #DEDFDF",
"q	c #ED9764",
"r	c #ED955D",
"s	c #F0841E",
"t	c #ED8000",
"u	c #E07600",
"v	c #D1C8C5",
"w	c #DADADA",
"x	c #E1D2CC",
"y	c #EE9256",
"z	c #EE9358",
"A	c #E7B8A4",
"B	c #EF862B",
"C	c #E0D8D5",
"D	c #E2D1CA",
"E	c #EBA581",
"F	c #F08314",
"G	c #F08100",
"H	c #EBA17A",
"I	c #EC9F74",
"                                ",
"                                ",
"                                ",
"             .......            ",
"             ........           ",
"          ..............        ",
"          ..............        ",
"       ++++......@++++@..       ",
"      .#$$%&.....*=$$-*....     ",
"      *;>>,'*....)!>>~)*@..     ",
"      {]>>>^/(.._=:>><{[+..     ",
"      }}}|>>12..34}56>>7+..     ",
"      88890>12..a888b>>7+..     ",
"      c88d0>12..e888b>>7+..     ",
"    .fg88h01ij..ak88b>1$+....   ",
"    ..lmnopqrs..tuvnwxyz.....   ",
"    ...A1p1B.....*CppD*......   ",
"    ...rEEEF.....GHEEIG......   ",
"    .........................   ",
"    .........................   ",
"    .........................   ",
"    .........................   ",
"    .........................   ",
"    .........................   ",
"    ...  ......   ......  ...   ",
"    ...  ......   ......  ...   ",
"    .      ....   ....     ..   ",
"    .      ....   ....     ..   ",
"                                ",
"                                ",
"                                ",
"                                "};
