/* XPM */
static char * ghost_down2_xpm[] = {
"32 32 69 1",
" 	c None",
".	c #F08200",
"+	c #F0830D",
"@	c #F0841E",
"#	c #F08205",
"$	c #F08419",
"%	c #F0841D",
"&	c #F08100",
"*	c #EBA682",
"=	c #DEDFDF",
"-	c #DEDEDE",
";	c #DEDFE0",
">	c #EE9051",
",	c #F07E00",
"'	c #E3CCC4",
")	c #E0D8D6",
"!	c #EAA785",
"~	c #E5C4B6",
"{	c #E4C7BC",
"]	c #E9B197",
"^	c #F08000",
"/	c #E6BEAD",
"(	c #E5C3B5",
"_	c #E0D8D5",
":	c #DFDCDB",
"<	c #E5C4B7",
"[	c #EE945A",
"}	c #E7B8A3",
"|	c #E4C5B8",
"1	c #F07F00",
"2	c #E0D7D3",
"3	c #EC9D70",
"4	c #DDDDDD",
"5	c #DBDBDB",
"6	c #DCDCDC",
"7	c #BBBBBB",
"8	c #000000",
"9	c #D2D2D2",
"0	c #E0E0E0",
"a	c #747474",
"b	c #414141",
"c	c #DFE1E1",
"d	c #E7B8A4",
"e	c #BBBCBC",
"f	c #D1D2D3",
"g	c #E4C5B9",
"h	c #E0D7D4",
"i	c #DFE0E1",
"j	c #757575",
"k	c #434343",
"l	c #DFE2E3",
"m	c #F08522",
"n	c #EF8832",
"o	c #CA7229",
"p	c #E2802F",
"q	c #F08628",
"r	c #EF872F",
"s	c #F18933",
"t	c #7E4516",
"u	c #482508",
"v	c #F08314",
"w	c #DE7800",
"x	c #AF5D00",
"y	c #B05E00",
"z	c #AE5D00",
"A	c #E97E00",
"B	c #F18300",
"C	c #C26800",
"D	c #B66100",
"                                ",
"                                ",
"                                ",
"                                ",
"             .......            ",
"          ..............        ",
"          ..............        ",
"        .................       ",
"       ..................       ",
"      .....................     ",
"      ...+@@@#......$@@%...     ",
"      .&&*=-;>&...&,'--),..     ",
"      .!~'--={]&.^/(_--:<[.     ",
"      .}------|&.12-----;3.     ",
"      .}------|&.12-----;3..    ",
"    ...}-4555-|&.12-6555;3...   ",
"    ...}-78889|&.120a88bc3...   ",
"    ...d=e888fg^.1hij88kl3...   ",
"    ...mno888pq...rst88usv...   ",
"    .....wxyzA.....BCyyDB....   ",
"    .........................   ",
"    .........................   ",
"    .........................   ",
"    .........................   ",
"    .........................   ",
"    ...  ......   ......  ...   ",
"    ...  ......   ......  ...   ",
"    .      ....   ....     ..   ",
"    .      ....   ....      .   ",
"                                ",
"                                ",
"                                "};
