/* XPM */
static char * ghost_orange_up_xpm[] = {
"32 32 69 1",
" 	c None",
".	c #F08200",
"+	c #000000",
"@	c #884700",
"#	c #F18300",
"$	c #E57C00",
"%	c #7F4100",
"&	c #F28200",
"*	c #F08100",
"=	c #E37900",
"-	c #000001",
";	c #DEDEDE",
">	c #E1E1E1",
",	c #363636",
"'	c #78675F",
")	c #E6C7BA",
"!	c #EF8831",
"~	c #ED9764",
"{	c #E4C5B9",
"]	c #D8B9AD",
"^	c #AFAFAF",
"/	c #E0E0E0",
"(	c #676767",
"_	c #525252",
":	c #878787",
"<	c #DFE1E1",
"[	c #EF8A3D",
"}	c #EBA17A",
"|	c #DEDFE0",
"1	c #D3D3D3",
"2	c #4C4C4C",
"3	c #4E4E4E",
"4	c #C0C0C0",
"5	c #DEDDDC",
"6	c #F08314",
"7	c #DEDDDD",
"8	c #DEDFDF",
"9	c #DFDFDF",
"0	c #E1D4CF",
"a	c #F07F00",
"b	c #F08315",
"c	c #E1D4D0",
"d	c #DDE0E1",
"e	c #EF8B3E",
"f	c #EBA27B",
"g	c #E0D5D1",
"h	c #F08208",
"i	c #EAA785",
"j	c #EBA683",
"k	c #DFDAD9",
"l	c #E1D2CD",
"m	c #EBA684",
"n	c #F08521",
"o	c #EF8D47",
"p	c #EAA886",
"q	c #E9AF94",
"r	c #E7BBA8",
"s	c #EBA37C",
"t	c #F08000",
"u	c #DFD9D6",
"v	c #E3CDC4",
"w	c #EE9154",
"x	c #DEE0E0",
"y	c #E8B59E",
"z	c #E7B8A4",
"A	c #E9AD90",
"B	c #EF8A3C",
"C	c #E7B9A5",
"D	c #ED9660",
"                                ",
"                                ",
"                                ",
"                                ",
"             .......            ",
"         +++@#.....$+++         ",
"         +++%&....*=-++         ",
"       ;>,++')!..~{]+++^;       ",
"       ;/(__:<[..}|12_345       ",
"      67;////8[..}|;///90a.     ",
"      b7;;;;;|[..}|;;;;;ca.     ",
"      b;8;;;;de..fd8;;;8ga.     ",
"      hijk;;lmn..opq8;8rs*.     ",
"      ..tu;;vt.....wx;8m...     ",
"     ...*yzzA*.....BCzCD...     ",
"   .........................    ",
"   .........................    ",
"   .........................    ",
"   .........................    ",
"   .........................    ",
"   .........................    ",
"   .........................    ",
"   .........................    ",
"   .........................    ",
"   .........................    ",
"   ........ ........ .......    ",
"    ......  ........ .......    ",
"      ..      ....     ...      ",
"      ..      ....     ...      ",
"                                ",
"                                ",
"                                "};
