/* XPM */
static char * 1_xpm[] = {
"5 9 2 1",
" 	c None",
".	c #FFFFFF",
"  .. ",
"   . ",
"   . ",
"   . ",
"   . ",
"   . ",
"   . ",
"   . ",
"   . "};
