/* XPM */
static char * 3_xpm[] = {
"5 9 2 1",
" 	c None",
".	c #FFFFFF",
" ... ",
"    .",
"    .",
"    .",
"  ...",
"    .",
"    .",
"    .",
" ... "};
