/* XPM */
static char * 4_xpm[] = {
"8 15 2 1",
" 	c None",
".	c #FFFFFF",
" ..   ..",
" ..   ..",
" ..   ..",
" ..   ..",
" ..   ..",
" ..   ..",
" ..   ..",
"   .....",
"      ..",
"      ..",
"      ..",
"      ..",
"      ..",
"      ..",
"      .."};
