/* XPM */
static char * 6_xpm[] = {
"5 9 2 1",
" 	c None",
".	c #FFFFFF",
" ... ",
".    ",
".    ",
".    ",
".... ",
".   .",
".   .",
".   .",
" ... "};
