/* XPM */
static char * 6_xpm[] = {
"8 15 2 1",
" 	c None",
".	c #FFFFFF",
"  ....  ",
"  ....  ",
"..      ",
"..      ",
"..      ",
"..      ",
"..      ",
"......  ",
"..    ..",
"..    ..",
"..    ..",
"..    ..",
"..    ..",
"  ....  ",
"  ....  "};
