/* XPM */
static char * collectible_xpm[] = {
"32 32 12 1",
" 	c None",
".	c #908870",
"+	c #A8A888",
"@	c #787058",
"#	c #B8B898",
"$	c #501000",
"%	c #E06848",
"&	c #F8F8F8",
"*	c #903828",
"=	c #000000",
"-	c #484858",
";	c #C0C0D0",
"..........++++++@@......####@@..",
"..........++++++@@......####@@..",
"......++++++++@@@@......@@@@....",
"......++++++++@@@@......@@@@....",
"......@@@@@@@@..................",
"......@@@@@@@@..................",
"............$$$$$$$$............",
"............$$$$$$$$............",
"####......$$%%%%%%%%$$..........",
"####......$$%%%%%%%%$$..........",
"@@@@....$$%%&&%%****%%$$++++....",
"@@@@....$$%%&&%%****%%$$++++....",
"......$$%%**%%%%******%%$$++++..",
"......$$%%**%%%%******%%$$++++..",
"..++++==%%****====****%%==@@@@..",
"..++++==%%****====****%%==@@@@..",
"..++++--==**==;;;;==**==--......",
"..++++--==**==;;;;==**==--......",
"..@@@@--&&====;;;;====;;--......",
"..@@@@--&&====;;;;====;;--......",
"........--&&&&====&&&&--++++....",
"........--&&&&====&&&&--++++....",
"....++++..--;;&&&&;;--++........",
"....++++..--;;&&&&;;--++........",
"++++++++++..--------++++++....@@",
"++++++++++..--------++++++....@@",
"++++++@@@@........@@@@@@........",
"++++++@@@@........@@@@@@........",
"@@@@@@..####@@............++++++",
"@@@@@@..####@@............++++++",
"........@@@@....................",
"........@@@@...................."};
