/* XPM */
static char * ghost_yellow_left_xpm[] = {
"32 32 69 1",
" 	c None",
".	c #FFF100",
"+	c #F7EC78",
"@	c #F7EC7A",
"#	c #F9ED6C",
"$	c #FEF027",
"%	c #F7EC7B",
"&	c #FCEF49",
"*	c #E1E0D6",
"=	c #DDDEE0",
"-	c #E5E2C8",
";	c #FCEF4F",
">	c #DDDDE2",
",	c #DDDDE1",
"'	c #F4EB8A",
")	c #FCEF4E",
"!	c #DEDEDE",
"~	c #E5E2CA",
"{	c #FCEF50",
"]	c #FDF043",
"^	c #F8ED6E",
"/	c #DEDEDF",
"(	c #F2E996",
"_	c #FBEF54",
":	c #FDF03D",
"<	c #DFE0E2",
"[	c #E0E0E0",
"}	c #E1DFD7",
"|	c #ECE6B8",
"1	c #EEE7A8",
"2	c #5F5F5F",
"3	c #5B5B5B",
"4	c #CBCBCB",
"5	c #E1E0D5",
"6	c #FFF200",
"7	c #B1A94C",
"8	c #656565",
"9	c #EEE7A7",
"0	c #010100",
"a	c #000000",
"b	c #C7C7C7",
"c	c #A39A00",
"d	c #242424",
"e	c #DFD200",
"f	c #EBDE00",
"g	c #625D00",
"h	c #5B5B56",
"i	c #555555",
"j	c #CACACA",
"k	c #DFDFDB",
"l	c #E3E1CF",
"m	c #E6E2C7",
"n	c #B4AA00",
"o	c #67611B",
"p	c #595A5B",
"q	c #606060",
"r	c #E3E1D0",
"s	c #F1E99C",
"t	c #FFF400",
"u	c #E3E2D7",
"v	c #E6E2C6",
"w	c #FFF101",
"x	c #FEF14F",
"y	c #F5EB86",
"z	c #E3E1D1",
"A	c #E0DFDA",
"B	c #E7E3C3",
"C	c #FCEF4D",
"D	c #DFDEDC",
"                                ",
"                                ",
"                                ",
"                                ",
"             .......            ",
"         ..............         ",
"         ...............        ",
"       ..................       ",
"       +@@#......$%@@&...       ",
"      .*==-......;>=,'.....     ",
"      )*!!~){...]^=!/(_:...     ",
"      <[[!!=}...|<[[!/=1...     ",
"      2234!!5..67228!!!9...     ",
"      0aab!!5..6caad!!!9...     ",
"    .eaaab!!5..6caad!!!9....    ",
"    .fghijklm..6nopq!5rs.....   ",
"    ..tu[!v6.w..6x<[/y.......   ",
"    ...zAAB......CDAky.......   ",
"    .........................   ",
"    .........................   ",
"    .........................   ",
"    .........................   ",
"    .........................   ",
"    .........................   ",
"    .........................   ",
"    ....... ........ ........   ",
"     ....     ....     ....     ",
"      ...     ....      ..      ",
"      ..      ....      ..      ",
"                                ",
"                                ",
"                                "};
