/* XPM */
static char * ghost_down2_xpm[] = {
"32 32 59 1",
" 	c None",
".	c #FFF100",
"+	c #FFF11A",
"@	c #FEF11E",
"#	c #FFF11C",
"$	c #FFF101",
"%	c #FFF114",
"&	c #FFF200",
"*	c #E6E2C6",
"=	c #DEDEDE",
"-	c #E1E0D5",
";	c #FFF11B",
">	c #EFE7A6",
",	c #ECE6AF",
"'	c #EBE5B5",
")	c #E1E0D6",
"!	c #DFDFDB",
"~	c #EAE5B7",
"{	c #FBEF56",
"]	c #FDF03F",
"^	c #EAE5B8",
"/	c #E4E1CC",
"(	c #EBE5B3",
"_	c #DDDEE0",
":	c #F9ED6A",
"<	c #FCEF4E",
"[	c #DCDCDC",
"}	c #DBDBDB",
"|	c #E0E0E0",
"1	c #6F6F6F",
"2	c #000000",
"3	c #474747",
"4	c #DFDFE2",
"5	c #9E9E9E",
"6	c #DFE0E1",
"7	c #6F7070",
"8	c #484949",
"9	c #DFDFE3",
"0	c #F9ED6B",
"a	c #FCEF4F",
"b	c #DDDDE1",
"c	c #DBDBDD",
"d	c #9E9FA0",
"e	c #DFDFDC",
"f	c #FEF030",
"g	c #FFF233",
"h	c #807914",
"i	c #534F0A",
"j	c #FFF113",
"k	c #FFF10B",
"l	c #FEF033",
"m	c #FBEE32",
"n	c #B6AC21",
"o	c #FEF132",
"p	c #CDC100",
"q	c #BBB100",
"r	c #C3B800",
"s	c #FEF000",
"t	c #DFD200",
"                                ",
"                                ",
"                                ",
"                                ",
"             .......            ",
"         ..............         ",
"         ...............        ",
"       ..................       ",
"       ..................       ",
"      .....................     ",
"      ...+@@#......$@@@%...     ",
"      ..&*==-&.....;===>...     ",
"      .,')==!~{..]^~===/(..     ",
"      .-=====_:..<_=====!..     ",
"     ..-=====_:..<_=====!..     ",
"    ...-=[}}}_:..<_=}}}[!....   ",
"    ...-|12234:..<_[2225!....   ",
"    ...)6722890..abc222de....   ",
"    ...fgh22igj..klm222no....   ",
"    ....&pqqr&.....sqqqt.....   ",
"    .........................   ",
"    .........................   ",
"    .........................   ",
"    .........................   ",
"    .........................   ",
"    ..   .....    ......  ...   ",
"    ..   .....    .....   ...   ",
"    .      ...    ...      ..   ",
"    .      ...    ...      .    ",
"                                ",
"                                ",
"                                "};
