/* XPM */
static char * ghost_up2_xpm[] = {
"32 32 55 1",
" 	c None",
".	c #FFF100",
"+	c #FEF000",
"@	c #000000",
"#	c #544F00",
"$	c #FFF300",
"%	c #FCEE00",
"&	c #292929",
"*	c #544F15",
"=	c #FEF152",
"-	c #FEF122",
";	c #FFF117",
">	c #FCEF51",
",	c #F9EC4F",
"'	c #484848",
")	c #DEDEDE",
"!	c #E0E0E0",
"~	c #6D6D6D",
"{	c #404142",
"]	c #DEDFE4",
"^	c #F9ED6B",
"/	c #FCEF4F",
"(	c #DDDDE2",
"_	c #DBDBDD",
":	c #9E9E9E",
"<	c #E1E0D6",
"[	c #D0D0D0",
"}	c #CCCCCC",
"|	c #CECECE",
"1	c #DEDEE0",
"2	c #F9ED6A",
"3	c #FCEF4E",
"4	c #DDDEE0",
"5	c #D5D5D5",
"6	c #DFDFDB",
"7	c #E1E0D5",
"8	c #E5E2C8",
"9	c #E3E1D1",
"0	c #DEDEDD",
"a	c #E2E0D2",
"b	c #FAEE64",
"c	c #FCEF49",
"d	c #E2E0D3",
"e	c #E2E0D1",
"f	c #E0DFD8",
"g	c #E4E1CE",
"h	c #FFF101",
"i	c #FFF200",
"j	c #E6E2C6",
"k	c #FFF10A",
"l	c #EFE7A5",
"m	c #E7E3C3",
"n	c #DFDFDA",
"o	c #FEF124",
"p	c #EFE8A4",
"                                ",
"                                ",
"                                ",
"             .......            ",
"             ......+            ",
"         @@@#$.....%@@@@        ",
"         &@@*=-..;>,@@@'        ",
"       )!~@@{]^../(_@@@:)       ",
"      .<)[}}|12..34)}}}56..     ",
"      .7)))))42..34)))))6..     ",
"      .7)))))42..34)))))6..     ",
"      .896))0ab..cde)))fg..     ",
"      h.ij))7i.....k)))l...     ",
"      ...mnne......onnnp...     ",
"    .........................   ",
"    .........................   ",
"    .........................   ",
"    .........................   ",
"    .........................   ",
"    .........................   ",
"    .........................   ",
"    .........................   ",
"    .........................   ",
"    .........................   ",
"    .........................   ",
"    ..   .....    ......  ...   ",
"    .      ...    ...      ..   ",
"    .      ...    ...      ..   ",
"                                ",
"                                ",
"                                ",
"                                "};
