/* XPM */
static char * ghost_yellow_up_xpm[] = {
"32 32 55 1",
" 	c None",
".	c #FFF100",
"+	c #000000",
"@	c #5D5700",
"#	c #FFF300",
"$	c #FDEF00",
"%	c #555000",
"&	c #DEDEDE",
"*	c #E1E1E1",
"=	c #5F5F5F",
"-	c #4D4B3A",
";	c #ECE7BA",
">	c #FBEF57",
",	c #FDF03F",
"'	c #EAE5B9",
")	c #E8E2B5",
"!	c #8E8E8E",
"~	c #DEDEDD",
"{	c #E0E0E0",
"]	c #838383",
"^	c #525252",
"/	c #6A6A6A",
"(	c #DFDFE2",
"_	c #F9ED6A",
":	c #FCEF4E",
"<	c #DDDEE0",
"[	c #DCDCDC",
"}	c #A8A8A8",
"|	c #E1E0D5",
"1	c #DFDFDF",
"2	c #DFDFDB",
"3	c #E1E0D6",
"4	c #DEDEDF",
"5	c #DDDDE1",
"6	c #F9ED6B",
"7	c #FCEF4F",
"8	c #DFDEDC",
"9	c #F6EC80",
"0	c #F5EB83",
"a	c #E3E1CF",
"b	c #E0DFD8",
"c	c #F5EB84",
"d	c #FDF03D",
"e	c #FEF02C",
"f	c #F5EB86",
"g	c #F4EB88",
"h	c #E9E4BB",
"i	c #E6E2C7",
"j	c #FEF124",
"k	c #EEE7A7",
"l	c #F3EA92",
"m	c #EFE8A4",
"n	c #F1E89D",
"o	c #FFF118",
"p	c #F7EC7A",
"                                ",
"                                ",
"                                ",
"                                ",
"             .......            ",
"         +++@#.....$+++         ",
"         +++%#.....$++++        ",
"       &*=++-;>..,')+++!&       ",
"       ~{]^^/(_..:<[^^^}&       ",
"      .|&{{{{<_..:<&{{{12..     ",
"      .|&&&&&<_..:<&&&&&2..     ",
"      .34&&&&56..754&&&48..     ",
"      .90a&&bcd..efg&&&h0..     ",
"      ...i&&|......j&&&k...     ",
"    .....lmmn......ommmp....    ",
"    .........................   ",
"    .........................   ",
"    .........................   ",
"    .........................   ",
"    .........................   ",
"    .........................   ",
"    .........................   ",
"    .........................   ",
"    .........................   ",
"    .........................   ",
"    ....... ........ ........   ",
"    ....... ........  ......    ",
"      ...     ....      ..      ",
"      ..      ....      ..      ",
"                                ",
"                                ",
"                                "};
