/* XPM */
static char * ghost_right2_xpm[] = {
"32 32 56 1",
" 	c None",
".	c #FFF100",
"+	c #FFF101",
"@	c #F7EC77",
"#	c #E9E4BD",
"$	c #E9E4BC",
"%	c #FDF03C",
"&	c #EEE7AA",
"*	c #EBE5B5",
"=	c #F4EA8D",
"-	c #DEDEDF",
";	c #DEDEDE",
">	c #DDDEE0",
",	c #FCEF48",
"'	c #E5E2C9",
")	c #E2E0D3",
"!	c #F1E99B",
"~	c #EFE8A5",
"{	c #FCEF50",
"]	c #FEF033",
"^	c #EFE8A3",
"/	c #E2E0D4",
"(	c #E0DFD9",
"_	c #EFE8A2",
":	c #DDDDDD",
"<	c #DADADA",
"[	c #D9D9DC",
"}	c #F7EC6D",
"|	c #FCEF49",
"1	c #DBDBDB",
"2	c #C9C9C9",
"3	c #000000",
"4	c #E4D800",
"5	c #DFDFDF",
"6	c #8C8C8C",
"7	c #E5D800",
"8	c #8D8D8D",
"9	c #272400",
"0	c #F2E996",
"a	c #EAE5B9",
"b	c #D5D5D5",
"c	c #A6A6A8",
"d	c #BFB535",
"e	c #BFB500",
"f	c #F3E600",
"g	c #FEF031",
"h	c #F0E89E",
"i	c #BEBEBE",
"j	c #AAA99F",
"k	c #C1B600",
"l	c #C3B800",
"m	c #F8ED74",
"n	c #EAE5B8",
"o	c #FDF03B",
"p	c #EEE7A6",
"q	c #ECE6AF",
"                                ",
"                                ",
"                                ",
"             .......            ",
"             .......            ",
"         ..............         ",
"         ..............         ",
"       .............+....       ",
"      ....@#$#%......&$$*..     ",
"      ....=-;>,......';;)..     ",
"      ...!$;;-&~{..]^/;;(_^     ",
"      ...);;:<<[}..|>;;1<<<     ",
"      ...);;23334..|>;56333     ",
"      ...);;23337..|>;58333     ",
"   ....../;;23334..|>;58339.    ",
"   ......0a;bcdef..gh);ijkl.    ",
"   .......=-;>|......';;)...    ",
"   .......mnnao......pnnq...    ",
"   .................+....+..    ",
"   .........................    ",
"   .........................    ",
"   .........................    ",
"   .........................    ",
"   .........................    ",
"   .........................    ",
"   ...  ......    .....   ..    ",
"   ..      ...    ...      .    ",
"   ..      ...    ...      .    ",
"                                ",
"                                ",
"                                ",
"                                "};
