/* XPM */
static char * ghost_left2_xpm[] = {
"32 32 69 1",
" 	c None",
".	c #FFF100",
"+	c #FFF101",
"@	c #E3E1D0",
"#	c #E0DFD8",
"$	c #E7E3C2",
"%	c #FCEF4C",
"&	c #DFDFDA",
"*	c #E0DFD9",
"=	c #F5EB85",
"-	c #FFF200",
";	c #E1E0D5",
">	c #DEDEDE",
",	c #E6E2C6",
"'	c #FCEF47",
")	c #DDDEE0",
"!	c #DEDEDF",
"~	c #F5EB86",
"{	c #E4E1CD",
"]	c #DFDEDD",
"^	c #E7E3C4",
"/	c #EEE7A7",
"(	c #E3E1CF",
"_	c #E2E0D3",
":	c #F1E99A",
"<	c #C0C0C0",
"[	c #BFBFBF",
"}	c #D8D8D8",
"|	c #DAD49C",
"1	c #C1C1C1",
"2	c #000000",
"3	c #C6C6C6",
"4	c #A29800",
"5	c #151515",
"6	c #C7C7C7",
"7	c #A39A00",
"8	c #242424",
"9	c #E7DA00",
"0	c #000001",
"a	c #E1DFD7",
"b	c #A09700",
"c	c #0A0A0A",
"d	c #EEE7A8",
"e	c #FCEE00",
"f	c #EEE100",
"g	c #D2D1C6",
"h	c #CFCFCF",
"i	c #DBDBDB",
"j	c #E5E2CA",
"k	c #FBEF57",
"l	c #FBEF58",
"m	c #F4E700",
"n	c #EBDF48",
"o	c #CECFD1",
"p	c #F1E999",
"q	c #FBEE5C",
"r	c #FDF043",
"s	c #E1E0D6",
"t	c #E5E2C8",
"u	c #FCEF4F",
"v	c #DDDDE1",
"w	c #F4EB8A",
"x	c #F7EC7B",
"y	c #F6EC81",
"z	c #F8ED73",
"A	c #FEF02A",
"B	c #F6EB82",
"C	c #F6EB81",
"D	c #FCEF4D",
"                                ",
"                                ",
"                                ",
"             .......            ",
"             .......            ",
"         ...............        ",
"         ...............        ",
"       ....+.............       ",
"      .@##$......%&#*=.....     ",
"      -;>>,-.+...')>!~.....     ",
"      {]>>&{^.../(>>>_{:...     ",
"      <<[}>>;...|<<1>>>/...     ",
"      2223>>;..-4225>>>/...     ",
"      2226>>;..-7228>>>/...     ",
"    .90223>)a..-b22c>!)d.....   ",
"    .efghijkl...mnoh!pqr.....   ",
"    ...s!!t......uv!)w.......   ",
"    ...xyyz......AByCD.......   ",
"    .........................   ",
"    .........................   ",
"    .........................   ",
"    .........................   ",
"    .........................   ",
"    .........................   ",
"    ... .......  ....... ....   ",
"    ..   .....    .....   ...   ",
"    .      ...    ...      ..   ",
"    .      ...    ...      ..   ",
"                                ",
"                                ",
"                                ",
"                                "};
