/* XPM */
static char * ghost_green_left_xpm[] = {
"32 32 84 1",
" 	c None",
".	c #009944",
"+	c #74AD80",
"@	c #7AAF85",
"#	c #77AE83",
"$	c #009943",
"%	c #039945",
"&	c #79AF85",
"*	c #5FA670",
"=	c #00983F",
"-	c #BECDC1",
";	c #E0DFDF",
">	c #DBDCDB",
",	c #0D9946",
"'	c #DEDEDE",
")	c #B1C6B5",
"!	c #009841",
"~	c #50A265",
"{	c #C1CEC4",
"]	c #DADCDA",
"^	c #50A366",
"/	c #54A368",
"(	c #079945",
"_	c #339D54",
":	c #56A46A",
"<	c #DDDDDD",
"[	c #B6C9BA",
"}	c #52A367",
"|	c #49A161",
"1	c #E2E1E2",
"2	c #E1E0E1",
"3	c #E0E0E0",
"4	c #DFDFDF",
"5	c #E0DFE0",
"6	c #259B4D",
"7	c #91B899",
"8	c #E3E2E3",
"9	c #DFDEDF",
"0	c #C7D1C9",
"a	c #00973C",
"b	c #5F5F5F",
"c	c #B0B0B0",
"d	c #3A874F",
"e	c #605F60",
"f	c #5B5B5B",
"g	c #D7D7D7",
"h	c #C5D0C7",
"i	c #00973D",
"j	c #000000",
"k	c #A5A5A5",
"l	c #007C36",
"m	c #D6D6D6",
"n	c #009542",
"o	c #009743",
"p	c #003A13",
"q	c #4B524D",
"r	c #595959",
"s	c #AFAFAF",
"t	c #DDDEDD",
"u	c #D0D6D1",
"v	c #229B4C",
"w	c #008038",
"x	c #023A16",
"y	c #555555",
"z	c #D8DBD9",
"A	c #B8CABC",
"B	c #00983E",
"C	c #00993F",
"D	c #BFCEC2",
"E	c #D9DBD9",
"F	c #009635",
"G	c #00973B",
"H	c #009A44",
"I	c #0D9B47",
"J	c #AFC5B3",
"K	c #009738",
"L	c #00983D",
"M	c #019944",
"N	c #B9CABD",
"O	c #D5D9D6",
"P	c #0C9946",
"Q	c #ACC4B1",
"R	c #009840",
"S	c #009842",
"                                ",
"                                ",
"                                ",
"                                ",
"             .......            ",
"          ..............        ",
"         ...............        ",
"       ..................       ",
"       +@@#$.....%&@@*$..       ",
"      =-;;>=.....,';;)!....     ",
"      ~{'']^/(.._:<''[}|$..     ",
"      1234'556..7833'950a..     ",
"      bbbc'''6..debfg''hi..     ",
"      jjjk'''6..ljjjm''hi..     ",
"    .njjjk'''6..ljjjm''hi....   ",
"    .opqrstuuv..wxrygzuAB....   ",
"    ..CD34EFG...HI43'JKLM....   ",
"    ..=N]]O=.....Pz]]Q!......   ",
"    ...!RRR.......RRRS.......   ",
"    .........................   ",
"    .........................   ",
"    .........................   ",
"    .........................   ",
"    .........................   ",
"    .........................   ",
"    ....... ........  .......   ",
"      ...     ....     ....     ",
"      ...     ....      ...     ",
"      ...      ...      ..      ",
"                                ",
"                                ",
"                                "};
