/* XPM */
static char * ghost_green_up_xpm[] = {
"32 32 66 1",
" 	c None",
".	c #009944",
"+	c #000000",
"@	c #009843",
"#	c #009A45",
"$	c #003212",
"%	c #00963F",
"&	c #009942",
"*	c #009840",
"=	c #009940",
"-	c #002D0E",
";	c #DEDEDE",
">	c #8F8F8F",
",	c #B6C7B9",
"'	c #7FB18A",
")	c #089945",
"!	c #B6C9BA",
"~	c #B9CBBC",
"{	c #383F39",
"]	c #626262",
"^	c #E1E1E1",
"/	c #D9DBDA",
"(	c #A9A9A9",
"_	c #525252",
":	c #DCDCDC",
"<	c #9BBCA1",
"[	c #0D9946",
"}	c #DDDDDD",
"|	c #E0E0E0",
"1	c #686868",
"2	c #868686",
"3	c #00983F",
"4	c #BCCCBF",
"5	c #DFDFDF",
"6	c #E0DFDF",
"7	c #3D9F5A",
"8	c #BDCCC0",
"9	c #3E9F5A",
"0	c #00983E",
"a	c #BECDC1",
"b	c #DFDEDF",
"c	c #9BBCA2",
"d	c #E1E0E1",
"e	c #71AC7E",
"f	c #85B38F",
"g	c #BACBBD",
"h	c #89B492",
"i	c #5BA56E",
"j	c #049945",
"k	c #84B38E",
"l	c #83B28D",
"m	c #D8DBD9",
"n	c #CDD5CF",
"o	c #219B4C",
"p	c #009943",
"q	c #A5C1AB",
"r	c #259B4D",
"s	c #00973C",
"t	c #D6D9D6",
"u	c #C5D0C7",
"v	c #00973D",
"w	c #79AF85",
"x	c #A4C0A9",
"y	c #189A49",
"z	c #9DBDA4",
"A	c #91B899",
"                                ",
"                                ",
"                                ",
"                                ",
"             .......            ",
"          +++@.....#$+++        ",
"         ++++%&...*=-+++        ",
"        ;>+++,'..)!~{++]^       ",
"       /;(___:<..[}|1__2|       ",
"      34;5|||;<..[};||||67.     ",
"      38;;;;;;<..[};;;;;69.     ",
"      0a5b;;;6c..[;5;;;;d9.     ",
"      &efg;;;hi..jklm;;nko.     ",
"      ..pq;;;r.....st;;uv..     ",
"    ....pwxxxy.....*zxxA*...    ",
"    ......ppp.......pppp.....   ",
"    .........................   ",
"    .........................   ",
"    .........................   ",
"    .........................   ",
"    .........................   ",
"    .........................   ",
"    .........................   ",
"    .........................   ",
"    .........................   ",
"    ....... ........  .......   ",
"    .......  .......  ......    ",
"      ...     ....      ...     ",
"      ...      ...      ..      ",
"                                ",
"                                ",
"                                "};
