/* XPM */
static char * ghost_blue_down_xpm[] = {
"32 32 62 1",
" 	c None",
".	c #20AEE6",
"+	c #1EAEE6",
"@	c #7ABCE4",
"#	c #9AC5E3",
"$	c #99C4E3",
"%	c #23AEE6",
"&	c #1AAEE6",
"*	c #96C3E3",
"=	c #84BEE4",
"-	c #2CAFE6",
";	c #B1CCE1",
">	c #DEDEDE",
",	c #DDDEDE",
"'	c #34B0E6",
")	c #27AEE6",
"!	c #30AFE6",
"~	c #D9DCDE",
"{	c #C0D2E0",
"]	c #26AEE6",
"^	c #21AEE6",
"/	c #08ADE6",
"(	c #C4D4E0",
"_	c #DFDEDE",
":	c #92C2E3",
"<	c #31AFE6",
"[	c #3AB0E6",
"}	c #C1C1C1",
"|	c #A8A8A8",
"1	c #DFDFDF",
"2	c #ABABAB",
"3	c #BABABA",
"4	c #969696",
"5	c #000000",
"6	c #131313",
"7	c #DEDEDD",
"8	c #363636",
"9	c #7F7F7F",
"0	c #E0E0DF",
"a	c #12ADE6",
"b	c #AACAE2",
"c	c #C0D2E1",
"d	c #818D98",
"e	c #121518",
"f	c #C0D1E0",
"g	c #7EBDE4",
"h	c #C1D3E2",
"i	c #2F3438",
"j	c #6D7881",
"k	c #14ADE6",
"l	c #0EAEE7",
"m	c #06739B",
"n	c #000306",
"o	c #0DADE5",
"p	c #0EADE6",
"q	c #002535",
"r	c #046183",
"s	c #0EAEE8",
"t	c #1FAEE6",
"u	c #20ACE3",
"v	c #1FABE2",
"w	c #1FACE3",
"                                ",
"                                ",
"                                ",
"             .......            ",
"             .......            ",
"         ...............        ",
"         ...............        ",
"       ..................       ",
"      .....................     ",
"      .....................     ",
"      ..+@##$%.....&*##=&..     ",
"      .--;>>,')...!)~>>{]^.     ",
"      /(>>>>>_:..<>>>>>>_[.     ",
"      /(>>>>>_:..<>>>>>>_[.     ",
"    ../(>>>>>_:..<>>>>>>_[...   ",
"    ../(>}|||>:..<>12||31[...   ",
"    ../(145567:..<>185590[...   ",
"    ..abcd55efg..-{hi55jh'...   ",
"    ...klm55no&...plq55rst...   ",
"    .....uvvv.......vvvw.....   ",
"    .........................   ",
"    .........................   ",
"    .........................   ",
"    .........................   ",
"    .........................   ",
"    ....... ........  .......   ",
"      ...     ....      ...     ",
"      ...     ....      ...     ",
"                                ",
"                                ",
"                                ",
"                                "};
