/* XPM */
static char * ghost_blue_left_xpm[] = {
"32 32 83 1",
" 	c None",
".	c #20AEE6",
"+	c #1DAEE6",
"@	c #1FAEE6",
"#	c #08ADE6",
"$	c #9CC5E2",
"%	c #A7C9E2",
"&	c #A2C7E2",
"*	c #15ADE6",
"=	c #2AAFE6",
"-	c #A8C9E2",
";	c #7FBDE4",
">	c #1EAEE6",
",	c #C5D4E0",
"'	c #DEDEDE",
")	c #D6DBDF",
"!	c #05ADE6",
"~	c #31AFE6",
"{	c #89C0E3",
"]	c #CED7DF",
"^	c #D9DCDE",
"/	c #8AC0E3",
"(	c #22AEE6",
"_	c #61B6E5",
":	c #8EC1E3",
"<	c #BDD1E1",
"[	c #8BC0E3",
"}	c #78BBE4",
"|	c #1BAEE6",
"1	c #DFDFDE",
"2	c #DFDEDE",
"3	c #27AEE6",
"4	c #9BC5E3",
"5	c #E0DFDE",
"6	c #C0D2E0",
"7	c #0EADE6",
"8	c #242424",
"9	c #1E1E1E",
"0	c #B0B0B0",
"a	c #DDDEDE",
"b	c #2288B4",
"c	c #24211F",
"d	c #161616",
"e	c #D9D9D9",
"f	c #BFD1E0",
"g	c #000001",
"h	c #000000",
"i	c #AEAEAE",
"j	c #1686B2",
"k	c #1FA9DF",
"l	c #1FABE2",
"m	c #026D92",
"n	c #7E8890",
"o	c #8E8E8E",
"p	c #C2C2C2",
"q	c #DBDDDE",
"r	c #B4CDE1",
"s	c #24AEE6",
"t	c #1A97C8",
"u	c #1B6F93",
"v	c #8F8F8F",
"w	c #8D8D8D",
"x	c #DBDBDB",
"y	c #CCD7DF",
"z	c #B5CEE1",
"A	c #9CC5E3",
"B	c #16AEE6",
"C	c #08AEE7",
"D	c #C5D4E1",
"E	c #DFDFDF",
"F	c #00ACE6",
"G	c #17AEE6",
"H	c #31B0E7",
"I	c #12ADE6",
"J	c #1AAEE6",
"K	c #0FADE6",
"L	c #B2CCE1",
"M	c #C9D5E0",
"N	c #C2D2E0",
"O	c #2EAFE6",
"P	c #98C4E3",
"Q	c #03ADE6",
"R	c #07ADE6",
"                                ",
"                                ",
"                                ",
"                                ",
"             .......            ",
"         ...............        ",
"         ...............        ",
"       ++++.......+++@...       ",
"      #$%%&*.....=%%-;>....     ",
"      #,'')!.....~'''-+....     ",
"      {]''^{/(.._:'''<[}|..     ",
"      1''''2'3..45''''267..     ",
"      8890''a3..bc8de''f7..     ",
"      ghhi''a3..jhhhe''f7..     ",
"    .khhhi''a3..jhhhe''f7....   ",
"    .lmnopqrrs..tuvwxyzAB....   ",
"    ..CDE')FG....HEE'%IJ.....   ",
"    ..KLMMN7.....OMMMP>......   ",
"    ...7QQR.......QQQ*.......   ",
"    .........................   ",
"    .........................   ",
"    .........................   ",
"    .........................   ",
"    .........................   ",
"    .........................   ",
"    ....... ........  .......   ",
"      ...     ....      ...     ",
"      ...     ....      ..      ",
"                                ",
"                                ",
"                                ",
"                                "};
