/* XPM */
static char * portal_xpm[] = {
"32 32 215 2",
"  	c None",
". 	c #2A2A2A",
"+ 	c #2C2C2C",
"@ 	c #303030",
"# 	c #353535",
"$ 	c #393939",
"% 	c #3C3C3C",
"& 	c #3D3D3D",
"* 	c #3B3B3B",
"= 	c #373737",
"- 	c #323232",
"; 	c #2F2F2F",
"> 	c #363636",
", 	c #434343",
"' 	c #4A4A4A",
") 	c #4F4F4F",
"! 	c #525252",
"~ 	c #535353",
"{ 	c #505050",
"] 	c #4C4C4C",
"^ 	c #464646",
"/ 	c #404040",
"( 	c #313131",
"_ 	c #272727",
": 	c #2B2B2B",
"< 	c #343434",
"[ 	c #474747",
"} 	c #515151",
"| 	c #5A5A5A",
"1 	c #616161",
"2 	c #676767",
"3 	c #6A6A6A",
"4 	c #6C6C6C",
"5 	c #6B6B6B",
"6 	c #686868",
"7 	c #646464",
"8 	c #5E5E5E",
"9 	c #565656",
"0 	c #424242",
"a 	c #3A3A3A",
"b 	c #282828",
"c 	c #5C5C5C",
"d 	c #727272",
"e 	c #797979",
"f 	c #7F7F7F",
"g 	c #848484",
"h 	c #868686",
"i 	c #858585",
"j 	c #828282",
"k 	c #7D7D7D",
"l 	c #767676",
"m 	c #6E6E6E",
"n 	c #636363",
"o 	c #555555",
"p 	c #494949",
"q 	c #2D2D2D",
"r 	c #8A8A8A",
"s 	c #929292",
"t 	c #989898",
"u 	c #9C9C9C",
"v 	c #9E9E9E",
"w 	c #9A9A9A",
"x 	c #959595",
"y 	c #8E8E8E",
"z 	c #787878",
"A 	c #4D4D4D",
"B 	c #575757",
"C 	c #888888",
"D 	c #A0A0A0",
"E 	c #A9A9A9",
"F 	c #AFAFAF",
"G 	c #B2B2B2",
"H 	c #B4B4B4",
"I 	c #B3B3B3",
"J 	c #B1B1B1",
"K 	c #ACACAC",
"L 	c #A4A4A4",
"M 	c #808080",
"N 	c #717171",
"O 	c #5F5F5F",
"P 	c #4E4E4E",
"Q 	c #262626",
"R 	c #696969",
"S 	c #7B7B7B",
"T 	c #8D8D8D",
"U 	c #BCBCBC",
"V 	c #C2C2C2",
"W 	c #C6C6C6",
"X 	c #C7C7C7",
"Y 	c #C4C4C4",
"Z 	c #BFBFBF",
"` 	c #B8B8B8",
" .	c #A3A3A3",
"..	c #949494",
"+.	c #4B4B4B",
"@.	c #656565",
"#.	c #ADADAD",
"$.	c #BBBBBB",
"%.	c #CECECE",
"&.	c #D5D5D5",
"*.	c #D9D9D9",
"=.	c #DADADA",
"-.	c #D7D7D7",
";.	c #D1D1D1",
">.	c #CACACA",
",.	c #C1C1C1",
"'.	c #A5A5A5",
").	c #595959",
"!.	c #454545",
"~.	c #484848",
"{.	c #737373",
"].	c #9D9D9D",
"^.	c #AEAEAE",
"/.	c #BEBEBE",
"(.	c #CBCBCB",
"_.	c #D6D6D6",
":.	c #DFDFDF",
"<.	c #E5E5E5",
"[.	c #EAEAEA",
"}.	c #EBEBEB",
"|.	c #E7E7E7",
"1.	c #E2E2E2",
"2.	c #D0D0D0",
"3.	c #B6B6B6",
"4.	c #2E2E2E",
"5.	c #3E3E3E",
"6.	c #969696",
"7.	c #AAAAAA",
"8.	c #E4E4E4",
"9.	c #EDEDED",
"0.	c #F4F4F4",
"a.	c #F8F8F8",
"b.	c #FAFAFA",
"c.	c #F9F9F9",
"d.	c #F6F6F6",
"e.	c #F1F1F1",
"f.	c #E9E9E9",
"g.	c #DEDEDE",
"h.	c #D2D2D2",
"i.	c #C3C3C3",
"j.	c #8B8B8B",
"k.	c #747474",
"l.	c #5D5D5D",
"m.	c #333333",
"n.	c #5B5B5B",
"o.	c #A1A1A1",
"p.	c #FCFCFC",
"q.	c #FEFEFE",
"r.	c #FFFFFF",
"s.	c #FBFBFB",
"t.	c #CFCFCF",
"u.	c #ABABAB",
"v.	c #7E7E7E",
"w.	c #666666",
"x.	c #7C7C7C",
"y.	c #E1E1E1",
"z.	c #EEEEEE",
"A.	c #D8D8D8",
"B.	c #9F9F9F",
"C.	c #878787",
"D.	c #222222",
"E.	c #818181",
"F.	c #B0B0B0",
"G.	c #C5C5C5",
"H.	c #E8E8E8",
"I.	c #FDFDFD",
"J.	c #EFEFEF",
"K.	c #444444",
"L.	c #B5B5B5",
"M.	c #C9C9C9",
"N.	c #DCDCDC",
"O.	c #ECECEC",
"P.	c #F3F3F3",
"Q.	c #919191",
"R.	c #B7B7B7",
"S.	c #F5F5F5",
"T.	c #E6E6E6",
"U.	c #939393",
"V.	c #7A7A7A",
"W.	c #545454",
"X.	c #6D6D6D",
"Y.	c #D4D4D4",
"Z.	c #212121",
"`.	c #292929",
" +	c #DBDBDB",
".+	c #F2F2F2",
"++	c #E3E3E3",
"@+	c #383838",
"#+	c #999999",
"$+	c #CCCCCC",
"%+	c #B9B9B9",
"&+	c #BDBDBD",
"*+	c #707070",
"=+	c #F7F7F7",
"-+	c #CDCDCD",
";+	c #A7A7A7",
">+	c #6F6F6F",
",+	c #C8C8C8",
"'+	c #D3D3D3",
")+	c #A2A2A2",
"!+	c #8F8F8F",
"~+	c #757575",
"{+	c #979797",
"]+	c #C0C0C0",
"^+	c #414141",
"/+	c #838383",
"(+	c #909090",
"_+	c #9B9B9B",
":+	c #A6A6A6",
"<+	c #898989",
"[+	c #626262",
"}+	c #606060",
"|+	c #585858",
"1+	c #242424",
"2+	c #252525",
"                                . .                             ",
"                      + @ # $ % & % * = - ;                     ",
"                  @ > % , ' ) ! ~ ! { ] ^ / $ (                 ",
"            _ : < & [ } | 1 2 3 4 5 6 7 8 9 ] 0 a ;             ",
"          b + # 0 { c 6 d e f g h i j k l m n o p * (           ",
"          q = ^ o 7 d f r s t u v v w x y g z 3 c A & -         ",
"        : > ^ B 6 e C x D E F G H I J K L w y M N O P & (       ",
"      Q - , 9 R S T u E H U V W X X Y Z ` F  ...g d 8 +.$ +     ",
"      q % ) @.e T v #.$.W %.&.*.=.=.-.;.>.,.H '.x j m ).!.<     ",
"    b # ~.8 {.C ].^./.(._.:.<.[.}.[.|.1.=.2.Y 3.'.s k 6 ! & 4.  ",
"    q 5.! R M 6.7.U (.*.8.9.0.a.b.c.d.e.f.g.h.i.I D j.k.l.^ m.  ",
"    m.!.n.{.j.o.3.X -.8.e.c.p.q.r.r.q.s.0.[.g.t./.u.6.v.w.) a   ",
"  . = +.n x...7./.2.y.z.c.q.r.r.r.r.r.r.s.0.|.A.X H B.C.m 9 / ( ",
"D.b $ { 6 E.w F.G.-.H.d.I.r.r.r.r.r.r.r.r.b.J.:.%.$.'.y k.c K.; ",
"D.. % ~ 4 i v L.M.N.O.b.q.r.r.r.r.r.r.r.r.I.P.8.h.Z E Q.z O ^ ( ",
"D.. & o m C D R.(.g.J.s.r.r.r.r.r.r.r.r.r.I.S.T.&.,.u.U.V.1 ~.- ",
"D.. & W.X.C o.R.(.g.z.b.q.r.r.r.r.r.r.r.r.I.S.T.Y.,.u.U.V.1 ~.- ",
"Z.`.* ! 4 h v L.M. +}.c.q.r.r.r.r.r.r.r.r.p..+++;./.E s z 8 ^ @ ",
"  `.@+) 2 E.#+F.Y _.T.S.p.r.r.r.r.r.r.r.q.c.9.g.$+%+L T {.| 0 q ",
"    # ' 1 V.s E &+t.g.9.a.I.r.r.r.r.r.q.s.P.T._.G.G ].i 4 W.5.q ",
"    ( 0 ).*+C B.I G.&.++J.=+s.I.q.q.I.b.P.f.N.-+U E U.S n A $   ",
"    : a { w.k U.;+%+M._.y.}..+=+c.a.S.J.T.N.2.,.F.].C.N | K.(   ",
"      m.!.| >+i #+u.$.,+'+N.++|.f.f.<.:.-.-+,.I )+!+V.7 ) a :   ",
"      : a A 1 ~+C w 7.R.V (.;.&.-.-.Y.%.X &+F.)+Q.v.3 9 , -     ",
"      b @ / } 7 l C {+'.F.` /.i.Y i.]+$.H 7.v !+f X.| ~.= .     ",
"        . m.^+! n k./+(+_+ .7.^.F F K :+B.x <+S 5 | ' $ + Q     ",
"          . m.^+{ O X.e /+j.s {+#+t x !+C.v.{.w.B ~.$ q Q       ",
"            . - 5.+.B [+5 {.e k f f x.l >+w.c } K.= + _         ",
"              `.4.$ 0 ] W.n.}+n @.7 [+l.|+{ [ & m.`.1+          ",
"                    @ @+5., ~.' ] +.p !.^+* < q                 ",
"                        4.@ < > @+= # - q :                     ",
"                          b . q @ 4.+ `.2+                      "};
