/* XPM */
static char * ghost_blue_right_xpm[] = {
"32 32 75 1",
" 	c None",
".	c #20AEE6",
"+	c #1FAEE6",
"@	c #17AEE6",
"#	c #1DAEE6",
"$	c #1CAEE6",
"%	c #3FB1E6",
"&	c #B6CEE1",
"*	c #B4CDE1",
"=	c #B5CEE1",
"-	c #77BBE4",
";	c #82BEE4",
">	c #3AB0E6",
",	c #4BB2E5",
"'	c #E0DFDE",
")	c #DEDEDE",
"!	c #DFDEDE",
"~	c #92C2E3",
"{	c #A0C7E2",
"]	c #1EAEE6",
"^	c #7ABCE4",
"/	c #A1C7E2",
"(	c #B8CFE1",
"_	c #9AC5E3",
":	c #78BBE4",
"<	c #1AAEE6",
"[	c #96C3E3",
"}	c #BED1E0",
"|	c #9DC6E2",
"1	c #B0CCE1",
"2	c #DCDCDC",
"3	c #DDDCDC",
"4	c #ACCAE0",
"5	c #1BAEE6",
"6	c #0FADE6",
"7	c #D9DCDE",
"8	c #DDDDDD",
"9	c #AFCCE1",
"0	c #141414",
"a	c #050505",
"b	c #050504",
"c	c #14779F",
"d	c #BEBEBE",
"e	c #000000",
"f	c #111111",
"g	c #13779F",
"h	c #000001",
"i	c #101010",
"j	c #1DA3D7",
"k	c #87BFE4",
"l	c #9D9D9D",
"m	c #6588A0",
"n	c #1379A2",
"o	c #1993C3",
"p	c #18AEE6",
"q	c #A6C9E2",
"r	c #C5D4E0",
"s	c #CDCDCD",
"t	c #9B9B9B",
"u	c #267BA1",
"v	c #1378A0",
"w	c #1FA8DF",
"x	c #4AB2E5",
"y	c #DFDFDE",
"z	c #A0C6E2",
"A	c #3AB1E6",
"B	c #42B1E6",
"C	c #C3D3E0",
"D	c #C1D2E0",
"E	c #C2D3E0",
"F	c #7FBDE4",
"G	c #8CC0E3",
"H	c #34B0E6",
"I	c #0BADE6",
"J	c #0CADE6",
"                                ",
"                                ",
"                                ",
"             .......            ",
"             .......            ",
"         ...............        ",
"         ...............        ",
"       ...+@@@#......$@@@       ",
"      ....%&*=-.....+;**=>.     ",
"      ....,')!~.....+{))!>.     ",
"      ..]^/!))(_:].<[})))|_     ",
"      ..<1)))22345.67))8233     ",
"      ..<9))80abc..67))deaa     ",
"      ..<9))8feeg..67))deeh     ",
"    ....<1))8ieeg..67))deeej.   ",
"    ....#k9!8lmno..pqr)stuvw.   ",
"    .....]x')y~.....5z))yA...   ",
"    ......BCDEF.....+GDDEH...   ",
"    ......+IJI<......pIJI+...   ",
"    .........................   ",
"    .........................   ",
"    .........................   ",
"    .........................   ",
"    .........................   ",
"    .........................   ",
"    ....... ........  .......   ",
"      ...     ....      ...     ",
"      ...     ....      ...     ",
"                                ",
"                                ",
"                                ",
"                                "};
