/* XPM */
static char * ghost_down2_xpm[] = {
"32 32 70 1",
" 	c None",
".	c #20AEE6",
"+	c #2CAFE6",
"@	c #2EAFE6",
"#	c #21AEE6",
"$	c #27AEE6",
"%	c #16ADE6",
"&	c #00ACE6",
"*	c #CCD6DF",
"=	c #DEDEDE",
"-	c #D1D8DF",
";	c #1FAEE6",
">	c #15ADE6",
",	c #3CB0E6",
"'	c #DFDEDE",
")	c #9AC5E3",
"!	c #B2CDE1",
"~	c #B6CEE1",
"{	c #D8DBDF",
"]	c #D9DCDE",
"^	c #B8CFE1",
"/	c #51B3E5",
"(	c #52B4E5",
"_	c #B9CFE1",
":	c #C9D5E0",
"<	c #B1CCE1",
"[	c #14ADE6",
"}	c #0BADE6",
"|	c #E0DFDE",
"1	c #61B6E5",
"2	c #63B6E5",
"3	c #D7DBDF",
"4	c #09ADE6",
"5	c #DCDCDC",
"6	c #DBDBDB",
"7	c #DDDDDD",
"8	c #E0E0E0",
"9	c #636363",
"0	c #000000",
"a	c #555555",
"b	c #E2E1E0",
"c	c #D9D9D9",
"d	c #ABABAB",
"e	c #E1E0E0",
"f	c #646464",
"g	c #575756",
"h	c #E3E1E0",
"i	c #63B7E5",
"j	c #E1DFDE",
"k	c #DAD9D9",
"l	c #ACACAB",
"m	c #D8DCDF",
"n	c #08ADE6",
"o	c #3BB0E6",
"p	c #3DB2E8",
"q	c #164E67",
"r	c #124359",
"s	c #3EB2E8",
"t	c #26AEE6",
"u	c #3DB1E6",
"v	c #3BACE0",
"w	c #2D88B1",
"x	c #20AFE7",
"y	c #1788B5",
"z	c #147FA8",
"A	c #1686B2",
"B	c #1FACE3",
"C	c #147EA7",
"D	c #147EA8",
"E	c #1B9BCE",
"                                ",
"                                ",
"                                ",
"                                ",
"             .......            ",
"         ..............         ",
"         ..............         ",
"       ..................       ",
"       ..................       ",
"      .....................     ",
"      ...+@@+......#@@@$...     ",
"      .%&*==-&;..;>,'==)%..     ",
"      >!~{==]^/..(__===:<[.     ",
"      }{=====|1..2|=====34.     ",
"     .}{=====|1..2|=====34.     ",
"    ..}{=5666|1..2|=666734..    ",
"    ..}{8900ab1..2|c000d34..    ",
"    ..}]ef00gh1..ijk000lmn..    ",
"    ..;opq00rst..tuv000wo;..    ",
"    ....xyzzAx.....BCzDE....    ",
"    ........................    ",
"    ........................    ",
"    ........................    ",
"    ........................    ",
"    ........................    ",
"    ..  ......    ......  ..    ",
"    ..   .....    .....   ..    ",
"    .      ...    ...      .    ",
"    .      ...    ...      .    ",
"                                ",
"                                ",
"                                "};
