/* XPM */
static char * ghost_left2_xpm[] = {
"32 32 83 1",
" 	c None",
".	c #20AEE6",
"+	c #0EADE6",
"@	c #14ADE6",
"#	c #1EAEE6",
"$	c #0DADE6",
"%	c #1CAEE6",
"&	c #0BADE6",
"*	c #D3D9DF",
"=	c #D8DCDE",
"-	c #BCD0E1",
";	c #61B6E5",
">	c #DADCDE",
",	c #79BBE4",
"'	c #00ACE6",
")	c #D8DBDF",
"!	c #DEDEDE",
"~	c #C1D2E0",
"{	c #05ADE6",
"]	c #5EB6E5",
"^	c #E0DFDE",
"/	c #00ADE6",
"(	c #16ADE6",
"_	c #CDD7DF",
":	c #DDDEDE",
"<	c #07ADE6",
"[	c #13ADE6",
"}	c #B0CCE1",
"|	c #D0D8DF",
"1	c #D2D9DF",
"2	c #CED7DF",
"3	c #8FC1E3",
"4	c #C0C0C0",
"5	c #BFBFBF",
"6	c #D9D9D9",
"7	c #D1D9DF",
"8	c #15AEE6",
"9	c #A4BBCC",
"0	c #C1C1C1",
"a	c #9BC5E3",
"b	c #000000",
"c	c #CCCCCC",
"d	c #20AFE7",
"e	c #006083",
"f	c #2F2F2F",
"g	c #DFDFDF",
"h	c #0E6385",
"i	c #373737",
"j	c #1B9ACB",
"k	c #DFDEDE",
"l	c #0D6182",
"m	c #2B2B2B",
"n	c #DFDFDE",
"o	c #9DC5E2",
"p	c #1FABE2",
"q	c #09A1D6",
"r	c #C9CDD0",
"s	c #CFCFCF",
"t	c #DBDBDB",
"u	c #C6D4E0",
"v	c #5DB5E5",
"w	c #5BB5E5",
"x	c #1DAEE6",
"y	c #1EA6DB",
"z	c #5CAAD5",
"A	c #D1D0CF",
"B	c #D0D0D0",
"C	c #90C2E3",
"D	c #45B2E5",
"E	c #0AADE6",
"F	c #D9DCDE",
"G	c #C2D3E0",
"H	c #64B7E5",
"I	c #E1DFDE",
"J	c #7DBCE4",
"K	c #1BAEE6",
"L	c #80BDE4",
"M	c #83BEE4",
"N	c #73BAE4",
"O	c #3DB1E6",
"P	c #85BEE4",
"Q	c #84BEE4",
"R	c #4BB2E5",
"                                ",
"                                ",
"                                ",
"             .......            ",
"            ........            ",
"         ..............         ",
"         ...............        ",
"       +++@......#$++%...       ",
"      &*==-+.....;>=>,.....     ",
"      ')!!~'{...$]^!^,/(...     ",
"      _:!!>_~<.[}|!!!123...     ",
"      4456!!7/.89440!!!a...     ",
"      bbbc!!7/.debbfg!!a...     ",
"      bbbc!!7/.dhbbig!!a...     ",
"    .jbbbck^*/.dlbbmgn^o....    ",
"    .pqrstuvwx..yzABnC;D....    ",
"    ..EFnnG&.....HInIJ......    ",
"    ..KLMMNK.....OPMQR......    ",
"    ........................    ",
"    ........................    ",
"    ........................    ",
"    ........................    ",
"    ........................    ",
"    ........................    ",
"    ... .......  ....... ...    ",
"    ..   .....    .....   ..    ",
"    .      ...    ...      .    ",
"    .      ...    ...      .    ",
"                                ",
"                                ",
"                                ",
"                                "};
