/* XPM */
static char * pac_closed_xpm[] = {
"45 45 2 1",
" 	c None",
".	c #FFF100",
"                                             ",
"                                             ",
"                                             ",
"                                             ",
"                                             ",
"                                             ",
"                .............                ",
"                .............                ",
"                .............                ",
"           .......................           ",
"           .......................           ",
"        ............................         ",
"        ............................         ",
"        ............................         ",
"        ............................         ",
"        ............................         ",
"      .................................      ",
"      .................................      ",
"      .................................      ",
"      .................................      ",
"      .................................      ",
"      .................................      ",
"      .................................      ",
"      .................................      ",
"      .................................      ",
"      .................................      ",
"      .................................      ",
"      .................................      ",
"      .................................      ",
"        ............................         ",
"        ............................         ",
"        ............................         ",
"        ............................         ",
"        ............................         ",
"           .......................           ",
"           .......................           ",
"                .............                ",
"                .............                ",
"                .............                ",
"                                             ",
"                                             ",
"                                             ",
"                                             ",
"                                             ",
"                                             "};
