/* XPM */
static char * pac_closed_xpm[] = {
"32 32 2 1",
" 	c None",
".	c #FFF100",
"                                ",
"                                ",
"                                ",
"                                ",
"           ..........           ",
"           ..........           ",
"        ................        ",
"        ................        ",
"      ....................      ",
"      ....................      ",
"      ....................      ",
"    ........................    ",
"    ........................    ",
"    ........................    ",
"    ........................    ",
"    ........................    ",
"    ........................    ",
"    ........................    ",
"    ........................    ",
"    ........................    ",
"    ........................    ",
"      ....................      ",
"      ....................      ",
"      ....................      ",
"        ................        ",
"        ................        ",
"           ..........           ",
"           ..........           ",
"                                ",
"                                ",
"                                ",
"                                "};
