/* XPM */
static char * pacman_dying1_xpm[] = {
"32 32 2 1",
" 	c None",
".	c #FFF100",
"                                ",
"                                ",
"                                ",
"                                ",
"                                ",
"                                ",
"                                ",
"    ...                 ...     ",
"    ....                ...     ",
"    ....               ....     ",
"    ......            .....     ",
"    .......         .......     ",
"    .......         .......     ",
"    .........     .........     ",
"    .........     .........     ",
"    ...........  ..........     ",
"    ...........  ..........     ",
"      ...................       ",
"      ...................       ",
"      ...................       ",
"        ................        ",
"        ................        ",
"           .........            ",
"           .........            ",
"                                ",
"                                ",
"                                ",
"                                ",
"                                ",
"                                ",
"                                ",
"                                "};
