/* XPM */
static char * pacman_dying9_xpm[] = {
"32 32 2 1",
" 	c None",
".	c #FFF100",
"                                ",
"                                ",
"                                ",
"                                ",
"                                ",
"                                ",
"                                ",
"                                ",
"                                ",
"                                ",
"               ..               ",
"               ..               ",
"               ..               ",
"               ..               ",
"             .....              ",
"             .....              ",
"             .....              ",
"             .....              ",
"             .....              ",
"            ........            ",
"           ..........           ",
"             ..  .              ",
"             ..  .              ",
"                                ",
"                                ",
"                                ",
"                                ",
"                                ",
"                                ",
"                                ",
"                                ",
"                                "};
