/* XPM */
static char * ghost_panic2_xpm[] = {
"32 32 62 1",
" 	c None",
".	c #B2B2B2",
"+	c #B1B3B3",
"@	c #B1B4B4",
"#	c #B2B3B3",
"$	c #D07D7E",
"%	c #DF484B",
"&	c #DE4D50",
"*	c #C98D8D",
"=	c #DF484A",
"-	c #E04649",
";	c #B4AFAF",
">	c #D57072",
",	c #E60012",
"'	c #E51B23",
")	c #CD8586",
"!	c #E6000F",
"~	c #E60006",
"{	c #B5AFAF",
"]	c #DF494C",
"^	c #DE4E51",
"/	c #C98D8E",
"(	c #DF494B",
"_	c #E0474A",
":	c #B6ADAD",
"<	c #DA6061",
"[	c #D96264",
"}	c #DA6163",
"|	c #C29B9B",
"1	c #B3B1B1",
"2	c #D96263",
"3	c #C88F90",
"4	c #D86769",
"5	c #CE8283",
"6	c #B7ABAB",
"7	c #E70000",
"8	c #E6000E",
"9	c #E70001",
"0	c #C79191",
"a	c #B3B0B0",
"b	c #E6000C",
"c	c #D07F7F",
"d	c #E4242A",
"e	c #D7686A",
"f	c #C59495",
"g	c #CC8788",
"h	c #CF8081",
"i	c #D07C7D",
"j	c #D17C7D",
"k	c #CC8787",
"l	c #CD8485",
"m	c #D2797A",
"n	c #D37677",
"o	c #E32E32",
"p	c #E2363A",
"q	c #CB8889",
"r	c #E32C31",
"s	c #E42A2F",
"t	c #C39898",
"u	c #E4282E",
"v	c #DC5658",
"w	c #B1B4B3",
"                                ",
"                                ",
"                                ",
"                                ",
"             .......            ",
"         ..............         ",
"         ..............         ",
"       ..................       ",
"       ..................       ",
"     ......................     ",
"     ......................     ",
"     .....+@@@...+@@@......     ",
"     ....#$%%&...*=%-;.....     ",
"     ....+>,,'...)!,~{.....     ",
"   ......+>,,'...)!,~{......    ",
"   ......#$]]^.../(]_;......    ",
"   .......+@@@...+@@@.......    ",
"   .........................    ",
"   ....+++....+++#...++++...    ",
"   ...:<[}|..12[[3..#4[[5+..    ",
"   ...67890..ab8bc#.+d88e+..    ",
"   ..f$ggghiiiggg5iijkggljk+    ",
"   .#m%+.+noop...qros;..tuvw    ",
"   ..++...++++...#+++....++.    ",
"   .........................    ",
"   .......  ........ .......    ",
"     ....     ....     ...      ",
"     ...      ....     ...      ",
"      ..      ...      ...      ",
"                                ",
"                                ",
"                                "};
