/* XPM */
static char * ghost_panic1_xpm[] = {
"32 32 69 1",
" 	c None",
".	c #0068B7",
"+	c #0064B7",
"@	c #0066B7",
"#	c #3A70B7",
"$	c #F3D2B6",
"%	c #F1D1B6",
"&	c #F2D2B6",
"*	c #A9A3B7",
"=	c #0C69B7",
"-	c #F0D0B6",
";	c #C0B1B6",
">	c #0067B7",
",	c #3C71B7",
"'	c #FCD9B6",
")	c #FBD8B6",
"!	c #B0A7B7",
"~	c #0D69B7",
"{	c #F9D7B6",
"]	c #C8B6B6",
"^	c #356FB7",
"/	c #E1C6B6",
"(	c #E0C5B6",
"_	c #E0C6B6",
":	c #9D9BB7",
"<	c #0A69B7",
"[	c #DEC4B6",
"}	c #B2A8B7",
"|	c #0065B7",
"1	c #0168B7",
"2	c #C2B2B6",
"3	c #E5C9B6",
"4	c #AFA6B7",
"5	c #1E6BB7",
"6	c #9899B7",
"7	c #E6C9B6",
"8	c #E7CAB6",
"9	c #4272B7",
"0	c #0063B7",
"a	c #D6BFB6",
"b	c #F7D5B6",
"c	c #FCD8B6",
"d	c #1269B7",
"e	c #A7A1B7",
"f	c #FDD9B6",
"g	c #FEDAB6",
"h	c #4473B7",
"i	c #286CB7",
"j	c #D0BBB6",
"k	c #9E9CB7",
"l	c #A19EB7",
"m	c #CFBBB6",
"n	c #CFBAB6",
"o	c #B6ABB7",
"p	c #CEBAB6",
"q	c #BDAFB6",
"r	c #9D9CB7",
"s	c #CCB8B6",
"t	c #D1BCB6",
"u	c #5F7CB7",
"v	c #2F6EB7",
"w	c #8D92B7",
"x	c #3970B7",
"y	c #EFD0B6",
"z	c #EECFB6",
"A	c #0B69B7",
"B	c #ECCEB6",
"C	c #BEAFB6",
"D	c #6E83B7",
"                                ",
"                                ",
"                                ",
"                                ",
"             .......            ",
"         ...............        ",
"         ...............        ",
"       ..................       ",
"       ..................       ",
"      .....................     ",
"      .....................     ",
"      .....+++@...+++@.....     ",
"      ....#$%&*..=-%%;>....     ",
"      ....,'))!..~{))]>....     ",
"    ......,'))!..~{))]>......   ",
"    ......^/(_:..<[((}>......   ",
"    .......+++@...|++@.......   ",
"    .........................   ",
"    ..1|+++1..@+++...@+++....   ",
"    ..@233_@.>43335..67389...   ",
"    ..0a''b+@|;''cd@@ef'gh@..   ",
"    .ij4kklmnnokkkpnnqrk:stu.   ",
"    .v-w..xyzze..ABzzC>.|8-D.   ",
"    ..+>...+++@...+++@..1++>.   ",
"    .........................   ",
"    ....... ........  .......   ",
"      ...     ....      ...     ",
"      ...     ....      ...     ",
"      ..       ...      ..      ",
"                                ",
"                                ",
"                                "};
