/* XPM */
static char * ghost_panic2b_xpm[] = {
"32 32 68 1",
" 	c None",
".	c #B2B2B2",
"+	c #B1B3B3",
"@	c #CD8586",
"#	c #E4262C",
"$	c #E4272D",
"%	c #E4232A",
"&	c #B4AFAF",
"*	c #C49798",
"=	c #E42128",
"-	c #E51C24",
";	c #BAA8A8",
">	c #CE8283",
",	c #E60010",
"'	c #E60012",
")	c #E60008",
"!	c #C49696",
"~	c #E70001",
"{	c #E70000",
"]	c #BAA7A7",
"^	c #C59495",
"/	c #D76B6C",
"(	c #D76B6D",
"_	c #B4B0B0",
":	c #BEA0A0",
"<	c #D76A6B",
"[	c #D7696B",
"}	c #B7ABAB",
"|	c #B1B4B4",
"1	c #E2363A",
"2	c #E2383C",
"3	c #CC8787",
"4	c #B2B3B3",
"5	c #E04346",
"6	c #D47273",
"7	c #B1B4B3",
"8	c #DC5658",
"9	c #DB5B5D",
"0	c #B3B1B1",
"a	c #CE8182",
"b	c #B0B4B4",
"c	c #E51922",
"d	c #D86769",
"e	c #B0B5B5",
"f	c #AFB5B5",
"g	c #E14044",
"h	c #DF484B",
"i	c #C88F8F",
"j	c #DC595B",
"k	c #BEA1A1",
"l	c #DD5557",
"m	c #DD5456",
"n	c #BF9E9F",
"o	c #C88E8F",
"p	c #DD5356",
"q	c #DD5355",
"r	c #C2999A",
"s	c #C39898",
"t	c #DB5D5F",
"u	c #C79191",
"v	c #DA6163",
"w	c #C89091",
"x	c #DB5C5E",
"y	c #C09D9E",
"z	c #DC5A5C",
"A	c #B8AAAA",
"B	c #B9A8A8",
"C	c #D96465",
"                                ",
"                                ",
"                                ",
"                                ",
"             .......            ",
"         ..............         ",
"         ..............         ",
"       ..................       ",
"       ..................       ",
"      .....................     ",
"      .....................     ",
"      .....+++....+++......     ",
"      ....@#$%&..*=$-;.....     ",
"      ....>,')&..!~'{].....     ",
"   .......>,')&..!~'{]......    ",
"   .......^/(/_..:<([}......    ",
"   ........+++....+++.......    ",
"   .........................    ",
"   ....|||+...+||+...+||+...    ",
"   ...&1223..45226+.78229+..    ",
"   ..+0{{{a|+bc{{de+fg{{hf+.    ",
"   ..ijkkk>llmnkkoplqrkksqt+    ",
"   ..uv...wxtx_..y9tzA..BzC+    ",
"   ..4+...++++....+++....++.    ",
"   .........................    ",
"   ...  ......    .....  ...    ",
"   ..     ....    ...      .    ",
"   ..     ....    ...      .    ",
"                                ",
"                                ",
"                                ",
"                                "};
