/* XPM */
static char * ghost_panic1b_xpm[] = {
"32 32 73 1",
" 	c None",
".	c #0068B7",
"+	c #0066B7",
"@	c #0067B7",
"#	c #5278B7",
"$	c #F8D6B6",
"%	c #F6D4B6",
"&	c #F7D5B6",
"*	c #9F9DB7",
"=	c #246BB7",
"-	c #BEAFB6",
";	c #5478B7",
">	c #FDD9B6",
",	c #FBD8B6",
"'	c #FCD9B6",
")	c #A29FB7",
"!	c #256CB7",
"~	c #C2B2B6",
"{	c #4573B7",
"]	c #D4BDB6",
"^	c #D2BCB6",
"/	c #D3BDB6",
"(	c #878FB7",
"_	c #1D6AB7",
":	c #A29EB7",
"<	c #0168B7",
"[	c #0065B7",
"}	c #0064B7",
"|	c #D9C1B6",
"1	c #F1D1B6",
"2	c #E7CAB6",
"3	c #C3B3B6",
"4	c #EFD0B6",
"5	c #0969B7",
"6	c #A7A1B7",
"7	c #F2D2B6",
"8	c #4172B7",
"9	c #0060B7",
"0	c #E4C8B6",
"a	c #0062B7",
"b	c #CCB9B6",
"c	c #AEA5B7",
"d	c #FEDAB6",
"e	c #FFDBB6",
"f	c #3A70B7",
"g	c #4974B7",
"h	c #E6CAB6",
"i	c #9999B7",
"j	c #7B89B7",
"k	c #8990B7",
"l	c #E4C9B6",
"m	c #E3C8B6",
"n	c #ACA4B7",
"o	c #7E8BB7",
"p	c #E3C7B6",
"q	c #BEB0B6",
"r	c #7A89B7",
"s	c #7888B7",
"t	c #DEC4B6",
"u	c #E5C9B6",
"v	c #6780B7",
"w	c #4774B7",
"x	c #E1C7B6",
"y	c #6D83B7",
"z	c #4975B7",
"A	c #E0C5B6",
"B	c #DFC5B6",
"C	c #8F94B7",
"D	c #1F6BB7",
"E	c #DDC4B6",
"F	c #ABA4B7",
"G	c #D8C0B6",
"H	c #647FB7",
"                                ",
"                                ",
"                                ",
"                                ",
"             .......            ",
"         ...............        ",
"         ...............        ",
"       ..................       ",
"       ..................       ",
"      .....................     ",
"      .....................     ",
"      .....+++@...+++@.....     ",
"      ....#$%&*..=%%%-@....     ",
"      ....;>,')..!,,,~@....     ",
"    ......;>,')..!,,,~@......   ",
"    ......{]^/(.._^^^:@......   ",
"    .......+++@...+++@.......   ",
"    .........................   ",
"    ..<[}}[<.<+}}}...+}}}....   ",
"    ..[|112[.+31145..61178...   ",
"    ..90>>79}ab>>,[}}cd>ef}@.   ",
"    .ghijjklm0njjopmmqrjstuv.   ",
"    .wxy..zAtBC..DEttF@.+GAH.   ",
"    ..[@...[[[@...[[[+..<[[@.   ",
"    .........................   ",
"    ...  .....    ......  ...   ",
"    .      ...    ....     ..   ",
"    .      ...    ....     ..   ",
"                                ",
"                                ",
"                                ",
"                                "};
