/* XPM */
static char * ghost_yellow_right_xpm[] = {
"32 32 59 1",
" 	c None",
".	c #FFF100",
"+	c #FBEE5B",
"@	c #EAE5B8",
"#	c #EAE5B7",
"$	c #FBEF56",
"%	c #F2E997",
"&	c #EBE5B5",
"*	c #F8ED70",
"=	c #DDDEE0",
"-	c #DEDEDE",
";	c #F9ED6A",
">	c #DFDFDB",
",	c #F4EA8C",
"'	c #EDE6AE",
")	c #DEDEDF",
"!	c #EDE6AC",
"~	c #F0E89D",
"{	c #FAEE62",
"]	c #FFF116",
"^	c #F1E99C",
"/	c #E5E2CB",
"(	c #DFDEDC",
"_	c #F1E99D",
":	c #E6E2C7",
"<	c #DBDBDB",
"[	c #DBDBDC",
"}	c #F3E98C",
"|	c #FEF124",
"1	c #DDDDDD",
"2	c #D5D5D5",
"3	c #000000",
"4	c #D0C500",
"5	c #A6A6A6",
"6	c #A7A7A7",
"7	c #FAEC00",
"8	c #F3EA93",
"9	c #EBE5B3",
"0	c #D9D9D9",
"a	c #9F9FA1",
"b	c #B5AC4B",
"c	c #B9AE00",
"d	c #E9DC00",
"e	c #FFF118",
"f	c #EFE8A4",
"g	c #E4E1CD",
"h	c #C4C4C4",
"i	c #A2A19E",
"j	c #B9AF00",
"k	c #FDEF00",
"l	c #F8ED6F",
"m	c #DEDEE0",
"n	c #F9EE6A",
"o	c #FAEE5E",
"p	c #E8E4BE",
"q	c #E9E4BD",
"r	c #E8E4BF",
"s	c #FBEE59",
"t	c #E9E4BA",
"                                ",
"                                ",
"                                ",
"             .......            ",
"             .......            ",
"         ...............        ",
"         ...............        ",
"       ..................       ",
"      ....+@#@$......%##&..     ",
"      ....*=-=;......@-->..     ",
"      ...,')-)!~{..]^/--(^_     ",
"      ...:---<<[}..|---1<[[     ",
"      ...:--23334..|---5333     ",
"      ...:--23334..|---6333     ",
"    .....:--23334..|---63337    ",
"    .....89)0abcd..efg-hijck.   ",
"    ......l=-mn......@-->....   ",
"    ......opqrs......_qqt....   ",
"    .........................   ",
"    .........................   ",
"    .........................   ",
"    .........................   ",
"    .........................   ",
"    .........................   ",
"    .........................   ",
"    ....... ........ ........   ",
"      ...     ....     ...      ",
"      ...     ....      ..      ",
"                                ",
"                                ",
"                                ",
"                                "};
