/* XPM */
static char * ghost_yellow_down_xpm[] = {
"32 32 59 1",
" 	c None",
".	c #FFF100",
"+	c #F8ED6E",
"@	c #F7EC7B",
"#	c #F7EC76",
"$	c #FFF10F",
"%	c #FBEE5B",
"&	c #FFF101",
"*	c #FFF200",
"=	c #E5E2C8",
"-	c #DDDEE0",
";	c #E1E0D6",
">	c #FFF119",
",	c #EEE7A7",
"'	c #E3E1D0",
")	c #E0DFD9",
"!	c #DEDEDD",
"~	c #DEDEDE",
"{	c #DFDFDB",
"]	c #F9EE68",
"^	c #FCEF4C",
"/	c #DFDEDC",
"(	c #E1E0D5",
"_	c #F9ED6A",
":	c #FCEF4E",
"<	c #DFDFDF",
"[	c #C5C5C5",
"}	c #BEBEBE",
"|	c #C1C1C1",
"1	c #DEDEE0",
"2	c #DDDDDD",
"3	c #CECECE",
"4	c #E0E0E0",
"5	c #6D6D6D",
"6	c #000000",
"7	c #434343",
"8	c #DFDFE2",
"9	c #DCDCDC",
"0	c #9E9E9E",
"a	c #E6E2C7",
"b	c #E5E3D1",
"c	c #727168",
"d	c #4B4A43",
"e	c #E4E2D3",
"f	c #FAEE63",
"g	c #FCEF49",
"h	c #E3E1D1",
"i	c #E1DECD",
"j	c #A3A194",
"k	c #E4E2CC",
"l	c #FFF300",
"m	c #7D7600",
"n	c #4C4700",
"o	c #FDEF00",
"p	c #B5AB00",
"q	c #F3E600",
"r	c #EFE200",
"s	c #F1E400",
"t	c #F7E900",
"                                ",
"                                ",
"                                ",
"                                ",
"             .......            ",
"         ...............        ",
"         ...............        ",
"       ..................       ",
"       ..................       ",
"      .....................     ",
"      ...+@@#......$@@@%...     ",
"      &.*=--;*.....>---,...     ",
"      .')!~~~{]..^{)~~~/;..     ",
"      .(~~~~~-_..:-~~~~~{..     ",
"    ...(~~~~~-_..:-~~~~~{...    ",
"    ...(<[}}|1_..:-2}}}3{....   ",
"    ...(456678_..:-96660{....   ",
"    ...abc66def..ghi666jk....   ",
"    ..&.lm66nl.....o666p*....   ",
"    .....qrrs.......rrrt.....   ",
"    .........................   ",
"    .........................   ",
"    .........................   ",
"    .........................   ",
"    .........................   ",
"    ....... ........ ........   ",
"      ...     ....     ...      ",
"      ...     ....      ..      ",
"                                ",
"                                ",
"                                ",
"                                "};
