/* XPM */
static char * ghost_up2_xpm[] = {
"32 32 55 1",
" 	c None",
".	c #800080",
"+	c #000000",
"@	c #260026",
"#	c #810081",
"$	c #7F007F",
"%	c #292929",
"&	c #2B152B",
"*	c #905290",
"=	c #832283",
"-	c #821782",
";	c #8F518F",
">	c #8D4F8D",
",	c #484848",
"'	c #DEDEDE",
")	c #E0E0E0",
"!	c #6D6D6D",
"~	c #414241",
"{	c #E3E4E3",
"]	c #996B99",
"^	c #8E4F8E",
"/	c #E1E2E1",
"(	c #DDDDDD",
"_	c #9E9E9E",
":	c #7D007D",
"<	c #D9D6D9",
"[	c #D0D0D0",
"}	c #CCCCCC",
"|	c #CECECE",
"1	c #996A99",
"2	c #8E4E8E",
"3	c #DFE0DF",
"4	c #D5D5D5",
"5	c #DCDBDC",
"6	c #D8D5D8",
"7	c #7E007E",
"8	c #CFC8CF",
"9	c #D5D1D5",
"0	c #D6D2D6",
"a	c #966496",
"b	c #8C498C",
"c	c #D6D3D6",
"d	c #DAD8DA",
"e	c #D3CED3",
"f	c #800180",
"g	c #7A007A",
"h	c #CEC6CE",
"i	c #D7D5D7",
"j	c #810A81",
"k	c #B8A5B8",
"l	c #CCC3CC",
"m	c #DBDADB",
"n	c #832483",
"o	c #DCDADC",
"p	c #B8A4B8",
"                                ",
"                                ",
"                                ",
"             .......            ",
"             .......            ",
"         +++@#.....$++++        ",
"         %++&*=..-;>+++,        ",
"       ')!++~{]..^/(+++_'       ",
"      :<'[}}|)1..23'}}}45$.     ",
"      :6'''''31..23'''''5$.     ",
"      :6'''''31..23'''''5$.     ",
"      7895''(0a..bc9'''de$.     ",
"      f:gh''ig$...:j'''k:..     ",
"      ..:lmm9:.....nomop...     ",
"    .....$$$$.......$$$$.....   ",
"    .........................   ",
"    .........................   ",
"    .........................   ",
"    .........................   ",
"    .........................   ",
"    .........................   ",
"    .........................   ",
"    .........................   ",
"    .........................   ",
"    .........................   ",
"    ..   .....    ......  ...   ",
"    .      ...    ...      ..   ",
"    .      ...    ...      ..   ",
"                                ",
"                                ",
"                                ",
"                                "};
