/* XPM */
static char * ghost_down2_xpm[] = {
"32 32 64 1",
" 	c None",
".	c #800080",
"+	c #821A82",
"@	c #821E82",
"#	c #821C82",
"$	c #800180",
"%	c #811481",
"&	c #7F007F",
"*	c #7C007C",
"=	c #CEC6CE",
"-	c #DEDEDE",
";	c #D7D5D7",
">	c #821B82",
",	c #B9A6B9",
"'	c #7E007E",
")	c #BEAFBE",
"!	c #C2B5C2",
"~	c #D8D6D8",
"{	c #DCDBDC",
"]	c #C3B7C3",
"^	c #915691",
"/	c #893F89",
"(	c #C4B8C4",
"_	c #C4B7C4",
":	c #D2CCD2",
"<	c #C1B3C1",
"[	c #7D007D",
"}	c #D8D5D8",
"|	c #DFE0DF",
"1	c #996A99",
"2	c #8E4E8E",
"3	c #DCDCDC",
"4	c #DBDBDB",
"5	c #E0E0E0",
"6	c #6F6F6F",
"7	c #000000",
"8	c #474747",
"9	c #E1E2E1",
"0	c #9E9E9E",
"a	c #E1E1E1",
"b	c #707070",
"c	c #494949",
"d	c #E2E3E2",
"e	c #996B99",
"f	c #8E4F8E",
"g	c #E0E1E0",
"h	c #DCDDDC",
"i	c #9FA09F",
"j	c #DDDCDD",
"k	c #863086",
"l	c #873387",
"m	c #411441",
"n	c #280A28",
"o	c #811381",
"p	c #810B81",
"q	c #863386",
"r	c #853285",
"s	c #5E215E",
"t	c #863286",
"u	c #810081",
"v	c #650065",
"w	c #5C005C",
"x	c #600060",
"y	c #6F006F",
"                                ",
"                                ",
"                                ",
"                                ",
"             .......            ",
"         ..............         ",
"         ...............        ",
"       ..................       ",
"       ..................       ",
"      .....................     ",
"      ...+@@#......$@@@%...     ",
"      .&*=--;*....&>---,'..     ",
"      ')!~--{]^../(_---:<&.     ",
"      [}-----|1..2|-----{&.     ",
"     .[}-----|1..2|-----{&.     ",
"    ..[}-3444|1..2|-4443{&...   ",
"    ..[}5677891..2|37770{&...   ",
"    ..[~ab77cde..fgh777ij&...   ",
"    ...klm77nlo..pqr777st....   ",
"    ....uvwwxu.....&wwwy.....   ",
"    .........................   ",
"    .........................   ",
"    .........................   ",
"    .........................   ",
"    .........................   ",
"    ..   .....    ......  ...   ",
"    ..   .....    .....   ...   ",
"    .      ...    ...      ..   ",
"    .      ...    ...      .    ",
"                                ",
"                                ",
"                                "};
