/* XPM */
static char * ghost_left2_xpm[] = {
"32 32 72 1",
" 	c None",
".	c #800080",
"+	c #7E007E",
"@	c #800180",
"#	c #7F007F",
"$	c #7D007D",
"%	c #D4D0D4",
"&	c #DAD8DA",
"*	c #CBC2CB",
"=	c #8D4C8D",
"-	c #DBDADB",
";	c #DBD9DB",
">	c #A685A6",
",	c #7A007A",
"'	c #D7D5D7",
")	c #DEDEDE",
"!	c #CEC6CE",
"~	c #8C478C",
"{	c #DFE0DF",
"]	c #DFDFDF",
"^	c #A786A7",
"/	c #D2CDD2",
"(	c #DDDDDD",
"_	c #CCC4CC",
":	c #B9A7B9",
"<	c #D3CFD3",
"[	c #D6D3D6",
"}	c #B19AB1",
"|	c #C0C0C0",
"1	c #BFBFBF",
"2	c #D8D8D8",
"3	c #D8D5D8",
"4	c #AC9CAC",
"5	c #C1C1C1",
"6	c #000000",
"7	c #C6C6C6",
"8	c #810081",
"9	c #4C004C",
"0	c #151515",
"a	c #C7C7C7",
"b	c #4F004F",
"c	c #242424",
"d	c #730073",
"e	c #000100",
"f	c #D9D7D9",
"g	c #4E004E",
"h	c #0A0A0A",
"i	c #E0E0E0",
"j	c #BAA8BA",
"k	c #740074",
"l	c #C9C6C9",
"m	c #CFCFCF",
"n	c #DBDBDB",
"o	c #D0CAD0",
"p	c #915791",
"q	c #915891",
"r	c #844884",
"s	c #D0D1D0",
"t	c #B199B1",
"u	c #935C93",
"v	c #8A438A",
"w	c #D9D6D9",
"x	c #CFC8CF",
"y	c #8E4F8E",
"z	c #E0E1E0",
"A	c #A88AA8",
"B	c #A17BA1",
"C	c #A481A4",
"D	c #9D739D",
"E	c #842A84",
"F	c #A482A4",
"G	c #8D4D8D",
"                                ",
"                                ",
"                                ",
"             .......            ",
"             .......            ",
"         ...............        ",
"         ...............        ",
"       ++++@......+++#...       ",
"      $%&&*+.....=-&;>.....     ",
"      ,'))!,$@..+~{)]^$+...     ",
"      /())-/_+.#:<)))[/}...     ",
"      ||12))3$.#4||5))):...     ",
"      6667))3$.89660))):...     ",
"      666a))3$.8b66c))):...     ",
"    .de667){f$.8g66h)]ij.....   ",
"    .+klmnopq...,rsm]tuv.....   ",
"    ..$w]]x$.....yz]iA.......   ",
"    ..#BCCD#.....EFCCG.......   ",
"    .........................   ",
"    .........................   ",
"    .........................   ",
"    .........................   ",
"    .........................   ",
"    .........................   ",
"    ... .......  ....... ....   ",
"    ..   .....    .....   ...   ",
"    .      ...    ...      ..   ",
"    .      ...    ...      ..   ",
"                                ",
"                                ",
"                                ",
"                                "};
