/* XPM */
static char * ghost_purple_left_xpm[] = {
"32 32 73 1",
" 	c None",
".	c #800080",
"+	c #9F789F",
"@	c #A07AA0",
"#	c #9A6C9A",
"$	c #7F007F",
"%	c #842784",
"&	c #A17BA1",
"*	c #8C498C",
"=	c #7D007D",
"-	c #D9D6D9",
";	c #DFE0DF",
">	c #CFC8CF",
",	c #8E4F8E",
"'	c #E0E2E0",
")	c #E0E1E0",
"!	c #A88AA8",
"~	c #8E4E8E",
"{	c #D8D6D8",
"]	c #DEDEDE",
"^	c #D0CAD0",
"/	c #8E508E",
"(	c #8A438A",
"_	c #9B6E9B",
":	c #DFDFDF",
"<	c #B096B0",
"[	c #905490",
"}	c #893D89",
"|	c #E1E2E1",
"1	c #E0E0E0",
"2	c #D9D7D9",
"3	c #C5B8C5",
"4	c #BAA8BA",
"5	c #5F5F5F",
"6	c #5B5B5B",
"7	c #CBCBCB",
"8	c #D8D5D8",
"9	c #6D4C6D",
"0	c #656565",
"a	c #B9A7B9",
"b	c #000000",
"c	c #C7C7C7",
"d	c #810081",
"e	c #4F004F",
"f	c #242424",
"g	c #6F006F",
"h	c #750075",
"i	c #2C002C",
"j	c #575657",
"k	c #555555",
"l	c #CACACA",
"m	c #DCDBDC",
"n	c #D4CFD4",
"o	c #CEC7CE",
"p	c #7E007E",
"q	c #580058",
"r	c #371B37",
"s	c #5A5B5A",
"t	c #606060",
"u	c #D4D0D4",
"v	c #B39CB3",
"w	c #DAD7DA",
"x	c #CEC6CE",
"y	c #7A007A",
"z	c #800180",
"A	c #8F4F8F",
"B	c #A786A7",
"C	c #D5D1D5",
"D	c #DBDADB",
"E	c #CBC3CB",
"F	c #8D4D8D",
"G	c #DCDCDC",
"H	c #A686A6",
"                                ",
"                                ",
"                                ",
"                                ",
"             .......            ",
"         ..............         ",
"         ...............        ",
"       ..................       ",
"       +@@#$.....%&@@*...       ",
"      =-;;>=.....,';)!.....     ",
"      ~{]]^~/...(_;]:<[}...     ",
"      |11]];2=.$3|11]:;4...     ",
"      5567]]8=..9550]]]a...     ",
"      bbbc]]8=.debbf]]]a...     ",
"    .gbbbc]]8=.debbf]]]a....    ",
"    .hijklmnop..qrst]8uv.....   ",
"    ..$w1]xy=z..dA|1:B=p.....   ",
"    ..=CDDE=.....FGDmH.......   ",
"    ...$$$$.......$$$........   ",
"    .........................   ",
"    .........................   ",
"    .........................   ",
"    .........................   ",
"    .........................   ",
"    .........................   ",
"    ....... ........ ........   ",
"     ....     ....     ....     ",
"      ...     ....      ..      ",
"      ..      ....      ..      ",
"                                ",
"                                ",
"                                "};
