/* XPM */
static char * ghost_right2_xpm[] = {
"32 32 76 1",
" 	c None",
".	c #800080",
"+	c #8B448B",
"@	c #A37FA3",
"#	c #A380A3",
"$	c #873687",
"%	c #976697",
"&	c #A27EA2",
"*	c #A27DA2",
"=	c #E0E1E0",
"-	c #DFDFDF",
";	c #966496",
">	c #7F007F",
",	c #C3B6C3",
"'	c #DEDDDE",
")	c #810B81",
"!	c #945E94",
"~	c #AF94AF",
"{	c #DEDEDE",
"]	c #DFE0DF",
"^	c #A686A6",
"/	c #976797",
"(	c #893D89",
"_	c #810A81",
":	c #C8BEC8",
"<	c #DDDDDD",
"[	c #986798",
"}	c #7D007D",
"|	c #D3CFD3",
"1	c #E0E0E0",
"2	c #E1E1E1",
"3	c #E2E3E2",
"4	c #AB8DAB",
"5	c #832283",
"6	c #DEDFDE",
"7	c #E1E2E1",
"8	c #D2CDD2",
"9	c #D3D3D3",
"0	c #353535",
"a	c #3F3F3F",
"b	c #3E403E",
"c	c #6F246F",
"d	c #B0B0B0",
"e	c #3D3D3D",
"f	c #D2D2D2",
"g	c #000000",
"h	c #690069",
"i	c #ACACAC",
"j	c #7B007B",
"k	c #7E007E",
"l	c #BBA9BB",
"m	c #CCC3CC",
"n	c #D6D6D6",
"o	c #888988",
"p	c #5B3B5B",
"q	c #4D004D",
"r	c #710071",
"s	c #821A82",
"t	c #C4B7C4",
"u	c #D5D1D5",
"v	c #C0C0C0",
"w	c #888888",
"x	c #4E044E",
"y	c #4C004C",
"z	c #A17BA1",
"A	c #976497",
"B	c #810081",
"C	c #C2B5C2",
"D	c #810C81",
"E	c #9A6D9A",
"F	c #CEC7CE",
"G	c #CDC5CD",
"H	c #915891",
"I	c #B6A1B6",
"J	c #CCC4CC",
"K	c #810981",
"                                ",
"                                ",
"                                ",
"                                ",
"             .......            ",
"         ...............        ",
"         ...............        ",
"       ..................       ",
"       ...+@@#$......%@@&       ",
"      ....*=-=;.....>,--').     ",
"      ..>!~-{]^/(.._;:{{<[%     ",
"      ..}|-{{1234..5]6{-177     ",
"      ..}8{{90abc..5{{{deaa     ",
"      ..}8{{fgggh..5{{{iggg     ",
"    ....}8{{fgggh..5{{{igggj.   ",
"    ....klm6nopqr..stu{vwxy}.   ",
"    .....>z]{=AB....}C{{'DB..   ",
"    ......EFGFH.....>IGGJK...   ",
"    ......>kkk.......>kkk....   ",
"    .........................   ",
"    .........................   ",
"    .........................   ",
"    .........................   ",
"    .........................   ",
"    .........................   ",
"    ..   .....    ......  ...   ",
"    .      ...    ...      ..   ",
"    .      ...    ...      ..   ",
"                                ",
"                                ",
"                                ",
"                                "};
