/* XPM */
static char * ghost_purple_down_xpm[] = {
"32 32 58 1",
" 	c None",
".	c #800080",
"+	c #7F007F",
"@	c #9A6E9A",
"#	c #A17BA1",
"$	c #9E769E",
"%	c #810F81",
"&	c #925B92",
"*	c #800180",
"=	c #7E007E",
"-	c #7C007C",
";	c #CFC8CF",
">	c #DFE0DF",
",	c #D9D6D9",
"'	c #7B007B",
")	c #821982",
"!	c #BAA7BA",
"~	c #7D007D",
"{	c #D4D0D4",
"]	c #DAD9DA",
"^	c #DDDDDD",
"/	c #DEDEDE",
"(	c #DCDBDC",
"_	c #986898",
":	c #8D4C8D",
"<	c #DBD9DB",
"[	c #DCDCDC",
"}	c #D8D6D8",
"|	c #D8D5D8",
"1	c #996A99",
"2	c #8E4E8E",
"3	c #DFDFDF",
"4	c #C5C5C5",
"5	c #BEBEBE",
"6	c #C1C1C1",
"7	c #E0E0E0",
"8	c #CECECE",
"9	c #6D6D6D",
"0	c #000000",
"a	c #434343",
"b	c #E1E2E1",
"c	c #9E9E9E",
"d	c #CEC7CE",
"e	c #D5D1D5",
"f	c #6A686A",
"g	c #454345",
"h	c #D7D3D7",
"i	c #966396",
"j	c #8C498C",
"k	c #D1CDD1",
"l	c #979497",
"m	c #D2CCD2",
"n	c #3A003A",
"o	c #200020",
"p	c #570057",
"q	c #7A007A",
"r	c #780078",
"s	c #790079",
"                                ",
"                                ",
"                                ",
"                                ",
"             .......            ",
"         ...............        ",
"         ...............        ",
"       ..................       ",
"       ..................       ",
"      .....................     ",
"      ..+@##$+.....%###&...     ",
"      *=-;>>,'....=)>>>!=..     ",
"      ~{]^///(_..:(<///[}+.     ",
"      ~|/////>1..2>/////(+.     ",
"    ..~|/////>1..2>/////(+..    ",
"    ..~|3455671..2>^5558(+...   ",
"    ..~|7900ab1..2>[000c(+...   ",
"    ..=def00ghi..jek000lm+...   ",
"    ..*~=n00o=+...~-000p~....   ",
"    .....qrrs.......rrr-.....   ",
"    .........................   ",
"    .........................   ",
"    .........................   ",
"    .........................   ",
"    .........................   ",
"    ....... ........ ........   ",
"      ...     ....     ...      ",
"      ...     ....      ..      ",
"                                ",
"                                ",
"                                ",
"                                "};
