/* XPM */
static char * ghost_down2_xpm[] = {
"32 32 54 1",
" 	c None",
".	c #F19EB5",
"+	c #F19FB5",
"@	c #F19FB6",
"#	c #F19DB5",
"$	c #F19DB4",
"%	c #E7C3CC",
"&	c #DEDEDE",
"*	c #F29CB4",
"=	c #E0D9DB",
"-	c #E2D2D6",
";	c #E9BFC9",
">	c #E5CAD0",
",	c #E1D5D8",
"'	c #E5CBD1",
")	c #ECB3C2",
"!	c #E5C9D0",
"~	c #DFDCDD",
"{	c #E0DADB",
"]	c #E5CAD1",
"^	c #F0A2B7",
"/	c #E4CED3",
"(	c #E9BEC9",
"_	c #DEDDDD",
":	c #DEDFDF",
"<	c #F0A4B9",
"[	c #DCDCDC",
"}	c #DBDBDB",
"|	c #9E9E9E",
"1	c #000000",
"2	c #DBDCDC",
"3	c #E0E0E0",
"4	c #474747",
"5	c #6F6F6F",
"6	c #DFE1E0",
"7	c #9F9F9F",
"8	c #494949",
"9	c #707070",
"0	c #DFE1E1",
"a	c #F0A1B6",
"b	c #F1A2B7",
"c	c #AC7282",
"d	c #EEA0B5",
"e	c #F1A0B6",
"f	c #F0A1B7",
"g	c #F2A3B9",
"h	c #4F323A",
"i	c #794F5B",
"j	c #D2899E",
"k	c #B17384",
"l	c #F09DB4",
"m	c #F29FB6",
"n	c #B87789",
"o	c #C17E91",
"                                ",
"                                ",
"                                ",
"                                ",
"             .......            ",
"          ..............        ",
"         ...............        ",
"        .................       ",
"       ..................       ",
"      .....................     ",
"      ...+@@@.......@@@@...     ",
"      .#$%&&&@....#*=&&-*..     ",
"      #;>,&&&')...!>~&&{]^.     ",
"      $/&&&&&&(..._&&&&&:<.     ",
"      $/&&&&&&(..._&&&&&:<..    ",
"    ..$/&[}}}&(..._&}}}[:<...   ",
"    ..$/&|1112(..._341156<...   ",
"    ..$/:71112(...&381190<...   ",
"    ...abc111de...fgh11ig....   ",
"    .....jkkkl.....mnkkom....   ",
"    .........................   ",
"    .........................   ",
"    .........................   ",
"    .........................   ",
"    .........................   ",
"    ...  ......   ......  ...   ",
"    ..   .....    ......  ...   ",
"    .      ...    ....     ..   ",
"    .      ...    ...      ..   ",
"                                ",
"                                ",
"                                "};
