/* XPM */
static char * ghost_pink_down_xpm[] = {
"32 32 56 1",
" 	c None",
".	c #F19EB5",
"+	c #F19FB5",
"@	c #E9BDC8",
"#	c #EDB0C0",
"$	c #EFA8BB",
"%	c #E9BEC8",
"&	c #F0A3B8",
"*	c #F1A0B6",
"=	c #F0A1B7",
"-	c #DEDEDE",
";	c #E6C6CE",
">	c #F19FB6",
",	c #EBB5C3",
"'	c #DEDFDF",
")	c #DDDFDF",
"!	c #EEAABC",
"~	c #EFA5B9",
"{	c #DFDDDD",
"]	c #E8C0CA",
"^	c #E4CDD2",
"/	c #F19DB4",
"(	c #DEDDDD",
"_	c #DDDDDD",
":	c #A8A8A8",
"<	c #C2C2C2",
"[	c #D0D0D0",
"}	c #A7A7A7",
"|	c #A6A6A6",
"1	c #D7D7D7",
"2	c #DCDCDC",
"3	c #020202",
"4	c #000000",
"5	c #9A9A9A",
"6	c #DFDDDE",
"7	c #BEBEBE",
"8	c #E3CFD4",
"9	c #E2CDD2",
"0	c #0A0809",
"a	c #9F8F93",
"b	c #E4CED3",
"c	c #EBB7C4",
"d	c #C3B1B5",
"e	c #D5C1C6",
"f	c #E8C1CA",
"g	c #F19DB5",
"h	c #EF9CB3",
"i	c #A76B7C",
"j	c #F29DB5",
"k	c #CF869A",
"l	c #E292A8",
"m	c #EC9BB2",
"n	c #EE9CB3",
"o	c #F09DB4",
"p	c #EC9BB1",
"q	c #F09EB5",
"                                ",
"                                ",
"                                ",
"             ......             ",
"             .......            ",
"         ..............         ",
"         ..............         ",
"       ..................       ",
"      .....................     ",
"     ......................     ",
"     ...+@@@#......$@@%&...     ",
"     ..*=---;>...+*,'-)!>..     ",
"     .~'-----{...]------^/.     ",
"     .~'-----(...]------^/.     ",
"   ...~'-----(...]------^/..    ",
"   ...~'_:::<{...]-[}:|1^/..    ",
"   ...~'234456...]-7444[^/..    ",
"   ...&89044ab...cbd444efg..    ",
"   ..../h444ij...g/k444lg...    ",
"   ......mmmn......opmpq....    ",
"   .........................    ",
"   .........................    ",
"   .........................    ",
"   .........................    ",
"   .........................    ",
"   .......  ........ .......    ",
"     ...      ....     ...      ",
"     ...      ....     ...      ",
"                                ",
"                                ",
"                                ",
"                                "};
