/* XPM */
static char * ghost_pink_right_xpm[] = {
"32 32 59 1",
" 	c None",
".	c #F19EB5",
"+	c #F19DB5",
"@	c #EABBC6",
"#	c #E5C9D0",
"$	c #E6C8CF",
"%	c #E6C7CF",
"&	c #E8C0CA",
"*	c #F19DB4",
"=	c #E5CAD0",
"-	c #DEDEDE",
";	c #DEDDDD",
">	c #DFDCDC",
",	c #E4CDD2",
"'	c #F19FB5",
")	c #E9BDC8",
"!	c #E2D3D6",
"~	c #F1A0B6",
"{	c #EFA8BB",
"]	c #E2D4D7",
"^	c #F19FB6",
"/	c #DDDDDD",
"(	c #DCDCDC",
"_	c #DCDDDD",
":	c #F0A2B7",
"<	c #ECB4C2",
"[	c #DEDFDF",
"}	c #ABABAB",
"|	c #000000",
"1	c #050505",
"2	c #EB9AB1",
"3	c #E0E0E0",
"4	c #5A5A5A",
"5	c #AAAAAA",
"6	c #65404A",
"7	c #F3A0B7",
"8	c #E7C4CC",
"9	c #E1D5D8",
"0	c #C4C4C4",
"a	c #9C9B9B",
"b	c #AA6E7E",
"c	c #A86D7E",
"d	c #EE9CB3",
"e	c #EEAABC",
"f	c #E7C4CD",
"g	c #DFDFDF",
"h	c #A7A7A7",
"i	c #A08F93",
"j	c #AA6D7E",
"k	c #B77789",
"l	c #F29FB6",
"m	c #DFDDDE",
"n	c #E5CDD3",
"o	c #F29DB5",
"p	c #E9BFC9",
"q	c #E3CFD4",
"r	c #E4CED3",
"s	c #E4CDD3",
"t	c #E8C1CB",
"                                ",
"                                ",
"                                ",
"             ......             ",
"             .......            ",
"         ..............         ",
"         ..............         ",
"       ....+++.......++++       ",
"      ....@##$.......%##&*.     ",
"     ....+=--;......+>--,*.     ",
"     ...')!--;))~..{);--]))     ",
"     ...^---/((_:..<[--((((     ",
"     ...^---}|1|2..<[-34111     ",
"     ...^---}|||2..<[-34|||     ",
"   .....^---5|||2..<[-34||67    ",
"   .....'89-0abcd..ef;ghijkl    ",
"   ......*=--m......*>--no..    ",
"   ......+pqqr......+sqqt+..    ",
"   .......+***.......***+...    ",
"   .........................    ",
"   .........................    ",
"   .........................    ",
"   .........................    ",
"   .........................    ",
"   .........................    ",
"   .......  ........ .......    ",
"     ...      ....     ...      ",
"     ...      ....     ...      ",
"                                ",
"                                ",
"                                ",
"                                "};
