/* XPM */
static char * ghost_left2_xpm[] = {
"32 32 60 1",
" 	c None",
".	c #F19EB5",
"+	c #F19DB4",
"@	c #F19DB5",
"#	c #E4CCD2",
"$	c #DFDBDC",
"%	c #E0D8DA",
"&	c #DFDADB",
"*	c #E6C6CE",
"=	c #F29BB3",
"-	c #E4CED3",
";	c #DEDEDE",
">	c #F19CB4",
",	c #DEDDDD",
"'	c #E6C8CF",
")	c #F29CB4",
"!	c #E1D5D8",
"~	c #F1A0B6",
"{	c #EBB5C3",
"]	c #E1D6D8",
"^	c #E5CBD1",
"/	c #C0C0C0",
"(	c #D0D0D0",
"_	c #E1ABB9",
":	c #BFC0C0",
"<	c #BFBFBF",
"[	c #DBDBDB",
"}	c #E2D2D6",
"|	c #000000",
"1	c #A6A6A6",
"2	c #C47F92",
"3	c #D5D5D5",
"4	c #A7A7A7",
"5	c #C58093",
"6	c #EC9BB2",
"7	c #A5A5A5",
"8	c #DEDFDF",
"9	c #E2D3D6",
"0	c #F09EB4",
"a	c #E192A8",
"b	c #D4C0C5",
"c	c #CFCFCF",
"d	c #D7D7D7",
"e	c #DFDCDC",
"f	c #EFA8BB",
"g	c #EEA9BC",
"h	c #EB9AB1",
"i	c #E193A9",
"j	c #CFCECE",
"k	c #DDDDDD",
"l	c #EEA9BB",
"m	c #EFA7BA",
"n	c #E4CFD4",
"o	c #DEDFDE",
"p	c #DFDCDD",
"q	c #E6C9CF",
"r	c #EDAEBF",
"s	c #ECB4C2",
"t	c #ECB3C2",
"u	c #EEACBD",
"                                ",
"                                ",
"                                ",
"             .......            ",
"             .......            ",
"         ...............        ",
"         ...............        ",
"       ++++.......+++@...       ",
"      +#$$%+......&$$*@....     ",
"      =-;;$=>...@+,;;')+...     ",
"      !$;;;!!~..{];;;$!^+..     ",
"      ///(;;;~.._:/<[;;}>..     ",
"      |||1;;;~..2|||3;;}>..     ",
"      |||4;;;~..5|||3;;}>..     ",
"    .6|||7;88~..2|||3;89>....   ",
"    .0abcdefg...hijck^lm.....   ",
"    ..+noop+......;ooq@......   ",
"    ...rsst.......sssu.......   ",
"    .........................   ",
"    .........................   ",
"    .........................   ",
"    .........................   ",
"    .........................   ",
"    .........................   ",
"    ... .......   ...... ....   ",
"    ...  .....    ......  ...   ",
"    .      ...    ....     ..   ",
"    .      ...    ....     ..   ",
"                                ",
"                                ",
"                                ",
"                                "};
