/* XPM */
static char * ghost_up2_xpm[] = {
"32 32 54 1",
" 	c None",
".	c #F19EB5",
"+	c #F09EB4",
"@	c #000000",
"#	c #EE9CB3",
"$	c #F39FB7",
"%	c #4F3139",
"&	c #484848",
"*	c #ECA5B8",
"=	c #F0A2B7",
"-	c #EFA7BA",
";	c #F1A8BC",
">	c #4F343B",
",	c #292929",
"'	c #DEDEDE",
")	c #9E9E9E",
"!	c #DBDDDC",
"~	c #E9BFC9",
"{	c #DFE1E1",
"]	c #414141",
"^	c #6D6D6D",
"/	c #E0E0E0",
"(	c #F19DB4",
"_	c #E3D0D5",
":	c #D5D5D5",
"<	c #CCCCCC",
"[	c #DDDEDE",
"}	c #E9BEC9",
"|	c #DEDDDD",
"1	c #CECECE",
"2	c #D0D0D0",
"3	c #DEDFDF",
"4	c #EFA5B9",
"5	c #E4CED3",
"6	c #F0A4B9",
"7	c #E5C9D0",
"8	c #E1D7D9",
"9	c #DFDBDC",
"0	c #E0D8DA",
"a	c #EABAC6",
"b	c #E1D6D9",
"c	c #DEDDDE",
"d	c #DFDDDD",
"e	c #F0A3B8",
"f	c #F19CB4",
"g	c #E7C3CC",
"h	c #F19DB5",
"i	c #F29BB3",
"j	c #E0D9DB",
"k	c #E2D2D6",
"l	c #E8C2CB",
"m	c #DFDCDD",
"n	c #F1A0B6",
"o	c #E0D7D9",
"                                ",
"                                ",
"                                ",
"             .......            ",
"             +......            ",
"         @@@@#.....$%@@@        ",
"         &@@@*=...-;>@@,        ",
"       '')@@@!~...'{]@@^/       ",
"      (_':<<<[}...|'1<<234.     ",
"      (5''''''}...|'''''36.     ",
"      (5''''''}...|'''''36.     ",
"      (789'''0a...b8c''d0e.     ",
"      .(fg'''.h...fij''ki..     ",
"      ...lmmmn.....fomm_(..     ",
"    ......hhh.......hhh......   ",
"    .........................   ",
"    .........................   ",
"    .........................   ",
"    .........................   ",
"    .........................   ",
"    .........................   ",
"    .........................   ",
"    .........................   ",
"    .........................   ",
"    .........................   ",
"    ...  .....    ......  ...   ",
"    .      ...    ....     ..   ",
"    .      ...    ....     ..   ",
"                                ",
"                                ",
"                                ",
"                                "};
