/* XPM */
static char * ghost_right2_xpm[] = {
"32 32 64 1",
" 	c None",
".	c #F19EB5",
"+	c #EDAFBF",
"@	c #ECB4C2",
"#	c #ECB2C1",
"$	c #ECB3C2",
"%	c #ECB1C0",
"&	c #F19DB4",
"*	c #E3D2D6",
"=	c #DEDFDE",
"-	c #DFDBDC",
";	c #DEDDDE",
">	c #E5CBD1",
",	c #F19DB5",
"'	c #F19FB6",
")	c #EEABBD",
"!	c #E2D3D7",
"~	c #DEDEDE",
"{	c #EEACBD",
"]	c #F0A3B8",
"^	c #EEACBE",
"/	c #DEDDDD",
"(	c #E4CED3",
"_	c #F0A4B8",
":	c #DDE0DF",
"<	c #DFDFDF",
"[	c #E0E0E0",
"}	c #DFE1E0",
"|	c #F1A0B6",
"1	c #EAB9C5",
"2	c #DEDFDF",
"3	c #9E9E9E",
"4	c #3F3F3F",
"5	c #414040",
"6	c #EF9DB4",
"7	c #636363",
"8	c #989898",
"9	c #000000",
"0	c #0A0405",
"a	c #EF9DB3",
"b	c #505050",
"c	c #68414C",
"d	c #F3A0B7",
"e	c #F0A2B7",
"f	c #E0DADB",
"g	c #B4B4B4",
"h	c #8B8788",
"i	c #96606F",
"j	c #966170",
"k	c #F09DB4",
"l	c #EDB0C0",
"m	c #969696",
"n	c #8E7D81",
"o	c #AB6F7F",
"p	c #F29FB6",
"q	c #F19CB4",
"r	c #E3D1D5",
"s	c #E0DBDC",
"t	c #F29DB5",
"u	c #E6CBD1",
"v	c #F29EB5",
"w	c #E6C7CE",
"x	c #E3D0D5",
"y	c #E8C1CB",
"                                ",
"                                ",
"                                ",
"                                ",
"            ........            ",
"         ..............         ",
"         ..............         ",
"       ..................       ",
"       ...+@@#.......$@@%       ",
"     ....&*==-&......;==>,.     ",
"     ...')!~~-){...]^/~~(){     ",
"     ..._:~~<[}}|..1:~~[[}}     ",
"     ..._2~<34456..1=~[7444     ",
"     ..._2~<8990a..1=~[b999     ",
"   ....._2~<8990a..1=~[b99cd    ",
"   .....e>f~ghijk..l>~<mniop    ",
"   ......qr~~stp....,/~<uvp.    ",
"   ......&wrr(&......xrry,..    ",
"   .......&&&&.......&&&,...    ",
"   .........................    ",
"   .........................    ",
"   .........................    ",
"   .........................    ",
"   .........................    ",
"   .........................    ",
"   ...  ......   ......  ...    ",
"   ..     ....   ....      .    ",
"   ..     ....   ....      .    ",
"                                ",
"                                ",
"                                ",
"                                "};
