/* XPM */
static char * ghost_pink_left_xpm[] = {
"32 32 64 1",
" 	c None",
".	c #F19EB5",
"+	c #EFA5B9",
"@	c #E7C3CC",
"#	c #EEADBE",
"$	c #ECB1C0",
"%	c #F1A0B6",
"&	c #DEDFDF",
"*	c #DEDEDE",
"=	c #DEDFDE",
"-	c #EAB9C5",
";	c #E8C0CA",
">	c #F0A1B7",
",	c #EBB7C4",
"'	c #EABBC7",
")	c #E6C7CE",
"!	c #EEACBE",
"~	c #EBB6C3",
"{	c #E5CBD1",
"]	c #EBB8C5",
"^	c #F0A2B7",
"/	c #E7C5CD",
"(	c #F19DB4",
"_	c #DFDCDD",
":	c #DDE0DF",
"<	c #EEA9BB",
"[	c #242424",
"}	c #303030",
"|	c #F29FB6",
"1	c #473439",
"2	c #828282",
"3	c #DFDFDF",
"4	c #000000",
"5	c #1D1D1D",
"6	c #3D252B",
"7	c #7F7F7F",
"8	c #9A6372",
"9	c #C37F92",
"0	c #9A6976",
"a	c #8E8F8F",
"b	c #919191",
"c	c #E3D1D5",
"d	c #E5C9D0",
"e	c #EBB8C4",
"f	c #A16878",
"g	c #967B81",
"h	c #8F8F8F",
"i	c #ABABAB",
"j	c #E5CAD1",
"k	c #E5CAD0",
"l	c #F29EB5",
"m	c #F0A6BA",
"n	c #DEE0E0",
"o	c #EAB8C5",
"p	c #F19DB5",
"q	c #F29EB6",
"r	c #E9C0CB",
"s	c #F0A4B8",
"t	c #E2D4D7",
"u	c #E2D3D6",
"v	c #E2D3D7",
"w	c #ECB4C2",
"x	c #EAB9C6",
"y	c #F19CB4",
"                                ",
"                                ",
"                                ",
"                                ",
"             .......            ",
"         ..............         ",
"         ..............         ",
"       ..................       ",
"      +@@@#......$@@@%....      ",
"     .+&*=-......;**=>.....     ",
"     ,'=**),!...~{***-]^...     ",
"     ==****=/..(_****=:<...     ",
"     [[[}***/..|1[[23*&<...     ",
"     4445***/..|64473*&<...     ",
"   .|8445***/..|64473*&<....    ",
"   ..90ab*cde..|fghi3jk+....    ",
"   ..lmn3*op....qr33*>p.....    ",
"   ...stuvw......xuuv>......    ",
"   ....yyyp......pyyy.......    ",
"   .........................    ",
"   .........................    ",
"   .........................    ",
"   .........................    ",
"   .........................    ",
"   .........................    ",
"   .......  ........ .......    ",
"     ...      ....     ...      ",
"     ...      ....     ...      ",
"                                ",
"                                ",
"                                ",
"                                "};
