/* XPM */
static char * ghost_orange_left_xpm[] = {
"32 32 78 1",
" 	c None",
".	c #F08200",
"+	c #EBA17A",
"@	c #ED955E",
"#	c #EF8B40",
"$	c #EBA27B",
"%	c #EF8831",
"&	c #F08315",
"*	c #DEDEDF",
"=	c #DEDFE0",
"-	c #E6BFAF",
";	c #F08100",
">	c #DDE0E1",
",	c #DDE0E2",
"'	c #ED9660",
")	c #EE9257",
"!	c #DEDDDD",
"~	c #DEDEDE",
"{	c #E5C3B5",
"]	c #EE9152",
"^	c #EE8E49",
"/	c #EE8F4C",
"(	c #EAAA8B",
"_	c #DEDFDF",
":	c #ECA179",
"<	c #EE9254",
"[	c #EF872E",
"}	c #E0E1E2",
"|	c #E0E0E0",
"1	c #E2CEC6",
"2	c #F08000",
"3	c #F07F00",
"4	c #E3D4CF",
"5	c #E0E1E1",
"6	c #EAA785",
"7	c #5F5F5F",
"8	c #5B5B5B",
"9	c #D8D8D8",
"0	c #E3CDC4",
"a	c #F28300",
"b	c #896757",
"c	c #797979",
"d	c #EBA684",
"e	c #000000",
"f	c #D6D6D6",
"g	c #6E3800",
"h	c #545454",
"i	c #B35F00",
"j	c #C86B00",
"k	c #5F3103",
"l	c #5A5959",
"m	c #555555",
"n	c #D7D7D7",
"o	c #DFDAD8",
"p	c #E1D4D0",
"q	c #E4C4B7",
"r	c #8A4800",
"s	c #603F2E",
"t	c #5A5A5A",
"u	c #757575",
"v	c #E0D6D2",
"w	c #E0D5D1",
"x	c #F18200",
"y	c #F28515",
"z	c #E0DFDF",
"A	c #E6BEAD",
"B	c #F07E00",
"C	c #F08201",
"D	c #EEA37B",
"E	c #EE945A",
"F	c #F08314",
"G	c #DFDAD9",
"H	c #DFDBDA",
"I	c #E6BCAB",
"J	c #ECA078",
"K	c #DFDCDB",
"L	c #DEDCDC",
"M	c #ED955D",
"                                ",
"                                ",
"                                ",
"                                ",
"             .......            ",
"         ..............         ",
"         ..............         ",
"       ..................       ",
"       +++@......#$+$%...       ",
"      &*==-;.....$>=,'.....     ",
"      )!~~{]^.../(_~=:<[...     ",
"      }||~_=12.345||~=>6...     ",
"      7789~~02.ab77c|~_d...     ",
"      eeef~~02.ageeh|~_d...     ",
"    .ieeef~~02.ageeh|~_d....    ",
"   ..jklmnopq2.arstu|vw$....    ",
"   ..xyz|~AB2C..aD}|=E3;....    ",
"   ...FGHHI;.....JKHLM......    ",
"   ....;;;;.......;;;.......    ",
"   .........................    ",
"   .........................    ",
"   .........................    ",
"   .........................    ",
"   .........................    ",
"   .........................    ",
"   ........ ........ .......    ",
"     ....     ....     ....     ",
"      ..      ....     ...      ",
"      ..      ...       ..      ",
"                                ",
"                                ",
"                                "};
