/* XPM */
static char * ghost_orange_down_xpm[] = {
"32 32 73 1",
" 	c None",
".	c #F08200",
"+	c #F08100",
"@	c #ECA077",
"#	c #EBA27B",
"$	c #EC9B6C",
"%	c #EF862B",
"&	c #EBA37C",
"*	c #EBA27C",
"=	c #EF8D47",
"-	c #F08000",
";	c #F17E00",
">	c #DFDAD8",
",	c #DEDFE0",
"'	c #E2CDC5",
")	c #EE9051",
"!	c #DDE0E2",
"~	c #DDE0E1",
"{	c #EBA683",
"]	c #F08201",
"^	c #F08314",
"/	c #DFDAD9",
"(	c #DEDEDE",
"_	c #DEDDDD",
":	c #DFDBDA",
"<	c #EF8A3C",
"[	c #DFDCDA",
"}	c #DFDCDB",
"|	c #E1D1CB",
"1	c #F07F00",
"2	c #F08315",
"3	c #EF8A3D",
"4	c #EBA17A",
"5	c #E1D4D0",
"6	c #DFDFDF",
"7	c #C0C0C0",
"8	c #BEBEBE",
"9	c #C6C6C6",
"0	c #DEE0E0",
"a	c #DADADA",
"b	c #BDBDBD",
"c	c #D5D5D5",
"d	c #E0E0E0",
"e	c #3D3D3D",
"f	c #000000",
"g	c #727272",
"h	c #DFE1E1",
"i	c #D1D1D1",
"j	c #BBBBBB",
"k	c #F08312",
"l	c #E1D3CE",
"m	c #E2D5D1",
"n	c #443F3E",
"o	c #766F6D",
"p	c #E2D6D2",
"q	c #EF8938",
"r	c #EC9D71",
"s	c #E0D5D1",
"t	c #D4C8C4",
"u	c #BEB3AF",
"v	c #E3CBC2",
"w	c #F28000",
"x	c #3F1D00",
"y	c #7B3E00",
"z	c #E37800",
"A	c #000001",
"B	c #CA6A00",
"C	c #E27A00",
"D	c #E17A00",
"E	c #E57C00",
"F	c #EE8100",
"G	c #E17900",
"H	c #EB7F00",
"                                ",
"                                ",
"                                ",
"                                ",
"             .......            ",
"         ..............         ",
"         ..............         ",
"       ..................       ",
"       ..................       ",
"      .....................     ",
"      ..+@##$+.....%&#*=...     ",
"      .-;>,,';....-)!,~{+].     ",
"      ^>/(((_:<..@[:(((}|1.     ",
"      2_(((((,3..4,(((((51.     ",
"    ..2_(((((,3..4,(((((51..    ",
"   ...2_6788903..4,ab8bc51..    ",
"   ...2_deffgh3..4,ifffj51..    ",
"   ...klmnffopq..rstfffuv-..    ",
"   ....1wxffyw...+1zAfAB-]..    ",
"   ......CDDE......FGDDH....    ",
"   .........................    ",
"   .........................    ",
"   .........................    ",
"   .........................    ",
"   .........................    ",
"   ........ ........ .......    ",
"     ....     ....     ...      ",
"      ..      ....     ...      ",
"                                ",
"                                ",
"                                ",
"                                "};
