/* XPM */
static char * ghost_right2_xpm[] = {
"32 32 84 1",
" 	c None",
".	c #009944",
"+	c #3D9F5A",
"@	c #80B18A",
"#	c #7FB189",
"$	c #349D54",
"%	c #009942",
"&	c #70AC7E",
"*	c #7DB088",
"=	c #71AC7F",
"-	c #E1E0E1",
";	c #DFDFDF",
">	c #61A772",
",	c #00973C",
"'	c #C7D2C9",
")	c #D4D9D5",
"!	c #00973B",
"~	c #009943",
"{	c #5BA56D",
"]	c #8DB696",
"^	c #DEDEDE",
"/	c #E0DFE0",
"(	c #84B28E",
"_	c #67A976",
":	c #389E57",
"<	c #179A48",
"[	c #63A874",
"}	c #CBD3CC",
"|	c #D5D9D6",
"1	c #62A773",
"2	c #66A876",
"3	c #C8D2CA",
"4	c #E0E0E0",
"5	c #E1E1E1",
"6	c #E3E2E3",
"7	c #83B28D",
"8	c #3E9F5A",
"9	c #E2E1E2",
"0	c #E2E1E1",
"a	c #00973D",
"b	c #C6D1C8",
"c	c #D4D4D4",
"d	c #353535",
"e	c #3F3F3F",
"f	c #403D3F",
"g	c #218643",
"h	c #3D9F59",
"i	c #E0DFDF",
"j	c #969696",
"k	c #D3D3D3",
"l	c #000000",
"m	c #008239",
"n	c #8F8F8F",
"o	c #001705",
"p	c #009A44",
"q	c #00983F",
"r	c #A4C0A9",
"s	c #C1CEC4",
"t	c #DFDEDF",
"u	c #D7D7D7",
"v	c #898888",
"w	c #396644",
"x	c #005C26",
"y	c #008B3D",
"z	c #319D53",
"A	c #B8CABC",
"B	c #D6DAD7",
"C	c #B0B0B0",
"D	c #838683",
"E	c #005C21",
"F	c #006028",
"G	c #009841",
"H	c #6FAB7D",
"I	c #60A772",
"J	c #009738",
"K	c #00983C",
"L	c #C7D1C9",
"M	c #C5D1C7",
"N	c #54A469",
"O	c #00983E",
"P	c #B0C6B4",
"Q	c #BCCCBF",
"R	c #00983D",
"S	c #019944",
"                                ",
"                                ",
"                                ",
"                                ",
"             .......            ",
"         ..............         ",
"         ..............         ",
"       ..................       ",
"       ...+@#@$.....%&##*       ",
"      ....=-;->.....,';;)!.     ",
"      ..~{];^/(_:..<[}^^|12     ",
"      ..,3;^^4567..8-^^;490     ",
"      ..ab^^cdefg..hi^;jeee     ",
"      ..ab^^klllm..hi^;nlll     ",
"    ....ab^^klllm..hi^;nllop    ",
"    ....qrstuvwxy..zAB;CDEF.    ",
"    .....GH/^-Ip....Jb^;)Kp.    ",
"    ......[LMLN.....OPMMQR..    ",
"    ......~RRR~.....SqRROS..    ",
"    ........................    ",
"    ........................    ",
"    ........................    ",
"    ........................    ",
"    ........................    ",
"    ........................    ",
"    ..   .....    .....   ..    ",
"    .      ...    ...      .    ",
"    .      ...    ...      .    ",
"                                ",
"                                ",
"                                ",
"                                "};
