/* XPM */
static char * ghost_up2_xpm[] = {
"32 32 66 1",
" 	c None",
".	c #009944",
"+	c #000000",
"@	c #009743",
"#	c #009A45",
"$	c #002D0F",
"%	c #4A4A4A",
"&	c #4FA164",
"*	c #359D55",
"=	c #019944",
"-	c #4FA265",
";	c #51A466",
">	c #13311B",
",	c #2B2B2B",
"'	c #DFDEDF",
")	c #DEDEDE",
"!	c #A0A0A0",
"~	c #DEDDDE",
"{	c #9CBDA3",
"]	c #0D9946",
"^	c #DFDEDE",
"/	c #E2E1E2",
"(	c #3E3E3E",
"_	c #717171",
":	c #E0E0E0",
"<	c #00983D",
"[	c #C1CFC4",
"}	c #D5D5D5",
"|	c #CCCCCC",
"1	c #9BBCA1",
"2	c #DDDDDD",
"3	c #CECECE",
"4	c #D1D1D1",
"5	c #E0DFDF",
"6	c #44A05D",
"7	c #00983F",
"8	c #BDCCC0",
"9	c #3E9F5A",
"0	c #B2C7B6",
"a	c #D1D7D2",
"b	c #D8DBD8",
"c	c #D2D7D3",
"d	c #91B899",
"e	c #0B9946",
"f	c #D0D6D1",
"g	c #DBDCDB",
"h	c #3A9E58",
"i	c #00983E",
"j	c #00973A",
"k	c #A4C0A9",
"l	c #009840",
"m	c #00973B",
"n	c #009531",
"o	c #D5D9D6",
"p	c #C4D0C7",
"q	c #009532",
"r	c #009943",
"s	c #A2BFA8",
"t	c #DADCDB",
"u	c #249B4D",
"v	c #00973C",
"w	c #C2CFC4",
"x	c #00973D",
"y	c #009942",
"z	c #009841",
"A	c #009842",
"                                ",
"                                ",
"                                ",
"             .......            ",
"             .......            ",
"         ++++@.....#$+++        ",
"         %+++&*..=-;>++,        ",
"       ')!+++~{..]^/(++_:       ",
"      <[)}|||)1..]2)3||456.     ",
"      78))))))1..]2)))))59.     ",
"      78))))))1..]2)))))59.     ",
"      70ab)))cd..efa2))gch.     ",
"      =ijk)))el...mno))pqr.     ",
"      ..rsgtgu.....vcttwx..     ",
"    .....yzzz.......zzzA.....   ",
"    .........................   ",
"    .........................   ",
"    .........................   ",
"    .........................   ",
"    .........................   ",
"    .........................   ",
"    .........................   ",
"    .........................   ",
"    .........................   ",
"    .........................   ",
"    ...  .....    ......  ...   ",
"    .      ...    ....     ..   ",
"    .      ...    ....     ..   ",
"                                ",
"                                ",
"                                ",
"                                "};
