/* XPM */
static char * ghost_green_down_xpm[] = {
"32 32 71 1",
" 	c None",
".	c #009944",
"+	c #5AA56D",
"@	c #7BAF87",
"#	c #0F9A47",
"$	c #009942",
"%	c #76AE83",
"&	c #6DAA7B",
"*	c #009841",
"=	c #00983E",
"-	c #A6C1AB",
";	c #E0DFE0",
">	c #E0DFDF",
",	c #199A49",
"'	c #00983F",
")	c #009636",
"!	c #D7DAD7",
"~	c #C6D1C8",
"{	c #B9CABC",
"]	c #D9DBD9",
"^	c #DCDDDC",
"/	c #DEDEDE",
"(	c #DADBDA",
"_	c #97BA9E",
":	c #0C9946",
"<	c #D8DAD8",
"[	c #DDDDDD",
"}	c #DADCDB",
"|	c #3C9F59",
"1	c #BDCCC0",
"2	c #9BBCA1",
"3	c #0D9946",
"4	c #3E9F5A",
"5	c #CECECE",
"6	c #BEBEBE",
"7	c #DFDFDF",
"8	c #C1C1C1",
"9	c #C6C6C6",
"0	c #9F9F9F",
"a	c #000000",
"b	c #DCDCDC",
"c	c #E0E0E0",
"d	c #404040",
"e	c #717171",
"f	c #E1E1E1",
"g	c #B0C6B4",
"h	c #CFD6D1",
"i	c #959A96",
"j	c #CDD4CE",
"k	c #90B798",
"l	c #0B9946",
"m	c #CED5CF",
"n	c #D1D8D2",
"o	c #414341",
"p	c #6B6F6C",
"q	c #D2D8D3",
"r	c #399E57",
"s	c #019944",
"t	c #00973B",
"u	c #006B27",
"v	c #00953A",
"w	c #009840",
"x	c #00983C",
"y	c #002708",
"z	c #004A19",
"A	c #00983B",
"B	c #009943",
"C	c #009442",
"D	c #008F3F",
"E	c #009040",
"F	c #009240",
"                                ",
"                                ",
"                                ",
"                                ",
"             .......            ",
"         ...............        ",
"         ...............        ",
"       ..................       ",
"       ..................       ",
"      .....................     ",
"      ...+@@@#.....$%@@&$..     ",
"      .*=-;>;,$...')!>>~)..     ",
"      '{]^///(_..:<]///[}|.     ",
"      '1//////2..3[/////>4.     ",
"    ..'1//////2..3[/////>4...   ",
"    ..'1/5666/2..3[78669;4...   ",
"    ..'1/0aaab2..3[cdaaef4...   ",
"    ..'ghiaaajk..lmnoaapqr...   ",
"    ..s=tuaaavw...txyaazAB...   ",
"    .....CDDD.......EDDF.....   ",
"    .........................   ",
"    .........................   ",
"    .........................   ",
"    .........................   ",
"    .........................   ",
"    ....... ........  .......   ",
"      ...     ....      ...     ",
"      ...     ....      ...     ",
"                                ",
"                                ",
"                                ",
"                                "};
