/* XPM */
static char * ghost_down2_xpm[] = {
"32 32 66 1",
" 	c None",
".	c #009944",
"+	c #139A48",
"@	c #1E9B4B",
"#	c #019944",
"$	c #1C9A4A",
"%	c #199A49",
"&	c #009841",
"*	c #00983F",
"=	c #A4C0AA",
"-	c #DEDEDE",
";	c #009942",
">	c #009840",
",	c #009638",
"'	c #D5D9D6",
")	c #C4D0C7",
"!	c #009738",
"~	c #9BBCA1",
"{	c #B6C9BA",
"]	c #CCD4CD",
"^	c #B8CABB",
"/	c #7EB089",
"(	c #089945",
"_	c #B5C8B9",
":	c #DBDCDB",
"<	c #B7C9BA",
"[	c #319D53",
"}	c #BDCCC0",
"|	c #0D9946",
"1	c #DDDDDD",
"2	c #E0DFDF",
"3	c #3E9F5A",
"4	c #DBDBDB",
"5	c #DCDCDC",
"6	c #A0A0A0",
"7	c #000000",
"8	c #E0E0E0",
"9	c #444444",
"0	c #737373",
"a	c #E1E1E1",
"b	c #00983E",
"c	c #BECDC1",
"d	c #DFDFDF",
"e	c #A1A1A1",
"f	c #DDDCDD",
"g	c #9BBCA2",
"h	c #E1E0E1",
"i	c #464646",
"j	c #747474",
"k	c #E2E1E2",
"l	c #299C4F",
"m	c #329D54",
"n	c #22703A",
"o	c #329B53",
"p	c #209B4B",
"q	c #329D53",
"r	c #339E54",
"s	c #092E14",
"t	c #154F27",
"u	c #079945",
"v	c #00853A",
"w	c #006F2F",
"x	c #009844",
"y	c #009A44",
"z	c #007331",
"A	c #007A35",
"                                ",
"                                ",
"                                ",
"                                ",
"             .......            ",
"          ..............        ",
"         ...............        ",
"        .................       ",
"       ..................       ",
"      .....................     ",
"      ...+@@@#......$@@%...     ",
"      .&*=---$;...>,'--)!..     ",
"      &~{]---^/..(__:--'<[.     ",
"      *}------~..|1-----23.     ",
"      *}------~..|1-----23..    ",
"    ..*}-1444-~..|1-444523...   ",
"    ..*}-67775~..|189770a3...   ",
"    ..bcde777fg..|-hi77jk3...   ",
"    ...lmn777op..#qrs77tru...   ",
"    .....vwwwx.....yzwwAy....   ",
"    .........................   ",
"    .........................   ",
"    .........................   ",
"    .........................   ",
"    .........................   ",
"    ...  ......   ......  ...   ",
"    ..   .....    .....   ...   ",
"    .      ...    ....     ..   ",
"    .      ...    ...      ..   ",
"                                ",
"                                ",
"                                "};
