/* XPM */
static char * ghost_green_right_xpm[] = {
"32 32 69 1",
" 	c None",
".	c #009944",
"+	c #009840",
"@	c #009942",
"#	c #2A9C50",
"$	c #B8CABB",
"%	c #B7C9BA",
"&	c #7EB189",
"*	c #79AF85",
"=	c #B7C9BB",
"-	c #3D9F59",
";	c #359D55",
">	c #DFDFDF",
",	c #DEDEDE",
"'	c #9BBCA1",
")	c #94B99C",
"!	c #DFDEDF",
"~	c #E0DFDF",
"{	c #3E9F5A",
"]	c #74AD80",
"^	c #A1BFA7",
"/	c #BDCCC0",
"(	c #9DBDA3",
"_	c #7FB189",
":	c #009841",
"<	c #96BA9E",
"[	c #BBCBBE",
"}	c #A2BFA8",
"|	c #009943",
"1	c #A5C1AB",
"2	c #DBDBDB",
"3	c #DCDBDC",
"4	c #B3C6B6",
"5	c #00973C",
"6	c #D6D9D7",
"7	c #DDDDDD",
"8	c #DCDBDB",
"9	c #222222",
"0	c #000000",
"a	c #006026",
"b	c #009A44",
"c	c #D6D9D6",
"d	c #C5C5C5",
"e	c #252525",
"f	c #006028",
"g	c #242424",
"h	c #008B3D",
"i	c #7AAF85",
"j	c #A8C2AD",
"k	c #A3A3A3",
"l	c #6F8874",
"m	c #006E2F",
"n	c #008038",
"o	c #9EBEA5",
"p	c #BFCDC1",
"q	c #D2D2D2",
"r	c #A1A0A1",
"s	c #2A723F",
"t	c #006D2E",
"u	c #009341",
"v	c #349D54",
"w	c #E0DFE0",
"x	c #2C9C50",
"y	c #BECDC1",
"z	c #83B28D",
"A	c #7EB089",
"B	c #339D54",
"C	c #00983E",
"D	c #009842",
"                                ",
"                                ",
"                                ",
"             .......            ",
"             .......            ",
"         ...............        ",
"         ...............        ",
"       ....+++@......@+++       ",
"      ....#$%%&......*=%=-.     ",
"      ....;>,,'......)!,~{.     ",
"      ...]^!,,/(_@.:<[,,!}(     ",
"      ..|1,,,2234:.56,,7283     ",
"      ..|1,,,900ab.5c,,d000     ",
"      ..|1,,,e00fb.5c,,d000     ",
"    ....|1,,,g00fb.5c,,d000h.   ",
"    ....|ij!,klmn..+op,qrstu.   ",
"    .....|v>,!'.....|)!,w{...   ",
"    ......xy//z......A//yB...   ",
"    .......CCCD......@CCC....   ",
"    .........................   ",
"    .........................   ",
"    .........................   ",
"    .........................   ",
"    .........................   ",
"    .........................   ",
"    ....... ........  .......   ",
"      ...     ....      ...     ",
"      ...     ....      ...     ",
"                                ",
"                                ",
"                                ",
"                                "};
