/* XPM */
static char * ghost_left2_xpm[] = {
"32 32 79 1",
" 	c None",
".	c #009944",
"+	c #00983E",
"@	c #009841",
"#	c #00983F",
"$	c #B9CABD",
"%	c #D8DBD9",
"&	c #D3D8D4",
"*	c #0C9946",
"=	c #D7DAD7",
"-	c #ABC3B0",
";	c #009842",
">	c #009635",
",	c #BCCCBF",
"'	c #DEDEDE",
")	c #D9DBD9",
"!	c #00973B",
"~	c #DDDDDD",
"{	c #AFC5B3",
"]	c #009738",
"^	c #00983D",
"/	c #019944",
"(	c #CDD4CE",
"_	c #DDDEDD",
":	c #CDD5CE",
"<	c #219B4C",
"[	c #83B28D",
"}	c #CED5CF",
"|	c #D7DAD8",
"1	c #B6C9B9",
"2	c #C0C0C0",
"3	c #D0D0D0",
"4	c #259B4D",
"5	c #7AA984",
"6	c #BFBFBF",
"7	c #DCDCDC",
"8	c #C5D0C7",
"9	c #00973D",
"0	c #000000",
"a	c #A4A4A4",
"b	c #007B32",
"c	c #D5D5D5",
"d	c #A5A5A5",
"e	c #007C36",
"f	c #D6D6D6",
"g	c #009643",
"h	c #010000",
"i	c #E0DFE0",
"j	c #007B35",
"k	c #DFDEDF",
"l	c #C7D1C9",
"m	c #00973C",
"n	c #008D3A",
"o	c #B0BEB3",
"p	c #CFCFCF",
"q	c #D7D7D7",
"r	c #DADCDA",
"s	c #58A56C",
"t	c #5CA56E",
"u	c #099945",
"v	c #009542",
"w	c #0B8F41",
"x	c #CECECE",
"y	c #B7C9BB",
"z	c #5AA56D",
"A	c #50A366",
"B	c #009943",
"C	c #BECDC1",
"D	c #DFDFDF",
"E	c #DADCDB",
"F	c #0D9946",
"G	c #B1C6B5",
"H	c #009942",
"I	c #6DAA7B",
"J	c #81B18B",
"K	c #7EB089",
"L	c #049945",
"M	c #80B18A",
"N	c #65A875",
"                                ",
"                                ",
"                                ",
"             .......            ",
"             .......            ",
"         ...............        ",
"         ...............        ",
"       ++++.......+++@...       ",
"      #$%%&#.....*=%%-;....     ",
"      >,'')>!...@+~''{]^/..     ",
"      ()''_(:<..[}'''|(1+..     ",
"      2223'''4..52267''89..     ",
"      000a'''4..b000c''89..     ",
"      000d'''4..e000f''89..     ",
"    .gh00a'ii4..j000ckilm....   ",
"    ..nopqrstu..vwxp~yzAB....   ",
"    ..+CDDE#.....F'DDG@......   ",
"    ..HIJJKB.....LMJJNB......   ",
"    .........................   ",
"    .........................   ",
"    .........................   ",
"    .........................   ",
"    .........................   ",
"    .........................   ",
"    ... .......   ...... ....   ",
"    ...  .....    ......  ...   ",
"    .      ...    ....     ..   ",
"    .      ...    ....     ..   ",
"                                ",
"                                ",
"                                ",
"                                "};
