/* XPM */
static char * ghost_purple_right_xpm[] = {
"32 32 59 1",
" 	c None",
".	c #800080",
"+	c #7F007F",
"@	c #925B92",
"#	c #C4B8C4",
"$	c #C3B7C3",
"%	c #915691",
"&	c #B097B0",
"*	c #C2B5C2",
"=	c #9B709B",
"-	c #DFE0DF",
";	c #DEDEDE",
">	c #996A99",
",	c #7E007E",
"'	c #DCDBDC",
")	c #AA8CAA",
"!	c #BEAEBE",
"~	c #DFDFDF",
"{	c #BDACBD",
"]	c #B49DB4",
"^	c #956295",
"/	c #821682",
"(	c #B39CB3",
"_	c #D1CBD1",
":	c #DDDCDD",
"<	c #B39DB3",
"[	c #7D007D",
"}	c #CEC7CE",
"|	c #DBDBDB",
"1	c #DCDCDC",
"2	c #A98CA9",
"3	c #832483",
"4	c #DDDDDD",
"5	c #DBDCDB",
"6	c #D5D5D5",
"7	c #000000",
"8	c #670067",
"9	c #A6A6A6",
"0	c #A7A7A7",
"a	c #AE93AE",
"b	c #C1B3C1",
"c	c #D9D9D9",
"d	c #A0A1A0",
"e	c #6E4B6E",
"f	c #5B005B",
"g	c #740074",
"h	c #821882",
"i	c #B8A4B8",
"j	c #D2CDD2",
"k	c #C4C4C4",
"l	c #9F9E9F",
"m	c #9B6F9B",
"n	c #E0E0E0",
"o	c #945E94",
"p	c #C8BEC8",
"q	c #C7BDC7",
"r	c #C9BFC9",
"s	c #925992",
"t	c #C6BAC6",
"                                ",
"                                ",
"                                ",
"             .......            ",
"             .......            ",
"         ...............        ",
"         ...............        ",
"       ....+++.......++++       ",
"      ....@#$#%.....+&$$*+.     ",
"      ....=-;->.....,#;;'+.     ",
"      ..+)!~;~{]^../(_;;:(<     ",
"      ..[};;;||12..3;;;4|55     ",
"      ..[};;67778..3;;;9777     ",
"      ..[};;67778..3;;;0777     ",
"    ....[};;67778..3;;;0777[    ",
"    ....+ab~cdefg..hij;klff+.   ",
"    ......m-;n>.....,#;;'+...   ",
"    ......opqrs.....+<qqt+...   ",
"    .......,,,.......+,,,....   ",
"    .........................   ",
"    .........................   ",
"    .........................   ",
"    .........................   ",
"    .........................   ",
"    .........................   ",
"    ....... ........ ........   ",
"      ...     ....     ...      ",
"      ...     ....      ..      ",
"                                ",
"                                ",
"                                ",
"                                "};
