/* XPM */
static char * ghost_purple_up_xpm[] = {
"32 32 56 1",
" 	c None",
".	c #800080",
"+	c #000000",
"@	c #2A002A",
"#	c #810081",
"$	c #7F007F",
"%	c #260026",
"&	c #7D007D",
"*	c #DEDEDE",
"=	c #E1E1E1",
"-	c #5F5F5F",
";	c #3F3A3F",
">	c #C6BAC6",
",	c #915791",
"'	c #893F89",
")	c #C5B9C5",
"!	c #C2B5C2",
"~	c #8E8E8E",
"{	c #DDDDDD",
"]	c #E0E0E0",
"^	c #838383",
"/	c #525252",
"(	c #6A6A6A",
"_	c #E1E2E1",
":	c #996A99",
"<	c #8E4E8E",
"[	c #DFE0DF",
"}	c #DCDCDC",
"|	c #A8A8A8",
"1	c #D8D5D8",
"2	c #DFDFDF",
"3	c #DCDBDC",
"4	c #D8D6D8",
"5	c #E0E1E0",
"6	c #996B99",
"7	c #8E4F8E",
"8	c #DEDFDE",
"9	c #DDDCDD",
"0	c #A380A3",
"a	c #A583A5",
"b	c #D3CFD3",
"c	c #DAD8DA",
"d	c #A584A5",
"e	c #893D89",
"f	c #852C85",
"g	c #A786A7",
"h	c #A888A8",
"i	c #C6BBC6",
"j	c #CEC7CE",
"k	c #832483",
"l	c #B9A7B9",
"m	c #AD92AD",
"n	c #B8A4B8",
"o	c #B39DB3",
"p	c #821882",
"q	c #A07AA0",
"                                ",
"                                ",
"                                ",
"                                ",
"             .......            ",
"         +++@#.....$+++         ",
"         +++%.....$&++++        ",
"       *=-++;>,..')!+++~*       ",
"       {]^//(_:..<[}///|*       ",
"      &1*]]]][:..<[*]]]23$.     ",
"      &1*****[:..<[*****3$.     ",
"      &42****56..752***89$.     ",
"      $0ab**cde..fgh***ia..     ",
"      ..&j**1&.....k***l...     ",
"    ....$mnno$.....pnnnq....    ",
"    .........................   ",
"    .........................   ",
"    .........................   ",
"    .........................   ",
"    .........................   ",
"    .........................   ",
"    .........................   ",
"    .........................   ",
"    .........................   ",
"    .........................   ",
"    ....... ........ ........   ",
"    ....... ........  ......    ",
"      ...     ....      ..      ",
"      ..      ....      ..      ",
"                                ",
"                                ",
"                                "};
