/* XPM */
static char * ghost_pink_up_xpm[] = {
"32 32 54 1",
" 	c None",
".	c #F19EB5",
"+	c #000000",
"@	c #A96D7E",
"#	c #CF879B",
"$	c #A86C7D",
"%	c #F29DB5",
"&	c #F19DB5",
"*	c #F19DB4",
"=	c #CF869A",
"-	c #010101",
";	c #DEDEDE",
">	c #DCDCDC",
",	c #090909",
"'	c #9C9899",
")	c #E0D9DB",
"!	c #E9BEC8",
"~	c #DFDADB",
"{	c #C0BBBC",
"]	c #CFCFCF",
"^	c #DDDDDD",
"/	c #989898",
"(	c #BBBBBB",
"_	c #DFDDDD",
":	c #E8C0CA",
"<	c #CDCDCD",
"[	c #979797",
"}	c #969696",
"|	c #D6D6D6",
"1	c #E1D5D8",
"2	c #EFA5B9",
"3	c #DEDFDF",
"4	c #DFDFDF",
"5	c #DEDDDD",
"6	c #E4CDD2",
"7	c #DDE0DF",
"8	c #DEDFDE",
"9	c #DEDDDE",
"0	c #E4CDD3",
"a	c #F0A3B8",
"b	c #F0A4B8",
"c	c #E6C6CE",
"d	c #F0A2B7",
"e	c #F1A0B6",
"f	c #EBB6C4",
"g	c #EEACBE",
"h	c #F0A1B7",
"i	c #F19FB6",
"j	c #E7C6CD",
"k	c #ECB4C2",
"l	c #DDE0E0",
"m	c #EEA9BC",
"n	c #EEABBC",
"o	c #EEABBD",
"                                ",
"                                ",
"                                ",
"                                ",
"             .......            ",
"         +++@......#+++         ",
"         +++$%...&*=++-         ",
"       ;>,++')...!~{+++];       ",
"       ;^///(_...:;<[/}|1       ",
"     .23;444;5...:;;444;6*.     ",
"     .23;;;;;5...:;;;;;;6*.     ",
"     .278;;;;9...:38;;;80*.     ",
"     ..ab;;;cd...eaf8;3gh..     ",
"     ...i333j......k73lm...     ",
"   ......nnn2......donoe....    ",
"   .........................    ",
"   .........................    ",
"   .........................    ",
"   .........................    ",
"   .........................    ",
"   .........................    ",
"   .........................    ",
"   .........................    ",
"   .........................    ",
"   .........................    ",
"   .......  ........ .......    ",
"     ...      ....     ...      ",
"     ...      ....     ...      ",
"                                ",
"                                ",
"                                ",
"                                "};
