/* XPM */
static char * ghost_up2_xpm[] = {
"32 32 62 1",
" 	c None",
".	c #E60012",
"+	c #E70012",
"@	c #E40012",
"#	c #000000",
"$	c #670003",
"%	c #E80012",
"&	c #DD0011",
"*	c #1C1C1C",
"=	c #681F21",
"-	c #E75254",
";	c #E61720",
">	c #E62229",
",	c #E55153",
"'	c #DD4D4F",
")	c #DEDEDE",
"!	c #E0E0E0",
"~	c #515151",
"{	c #5F6060",
"]	c #E0E4E4",
"^	c #E54F52",
"/	c #E46D6E",
"(	c #DEE2E2",
"_	c #D5D7D7",
":	c #B4B4B4",
"<	c #E60000",
"[	c #DEDBDB",
"}	c #CFCFCF",
"|	c #CCCCCC",
"1	c #DEE0E0",
"2	c #E54E51",
"3	c #E46C6D",
"4	c #DDDDDD",
"5	c #D8D8D8",
"6	c #DFD5D5",
"7	c #E60001",
"8	c #DEDADA",
"9	c #DFD4D4",
"0	c #E60003",
"a	c #DFCDCE",
"b	c #DFD1D1",
"c	c #DEDCDC",
"d	c #DFD3D3",
"e	c #E5494C",
"f	c #E56567",
"g	c #DFD2D2",
"h	c #DFD6D6",
"i	c #E0C7C7",
"j	c #DFCBCC",
"k	c #E6000E",
"l	c #E6000A",
"m	c #E63D40",
"n	c #DEDFDF",
"o	c #E38C8D",
"p	c #E60113",
"q	c #DFCECE",
"r	c #E0C8C9",
"s	c #E54447",
"t	c #E60005",
"u	c #E60002",
"v	c #E60011",
"w	c #E6000D",
"                                ",
"                                ",
"                                ",
"             .......            ",
"             +.....@            ",
"         ###$%.....&###         ",
"         *##=-;..>,'###         ",
"       )!~##{]^../(_###:)       ",
"      <[)}||}12..314|||56<.     ",
"      78)))))12..31)))))9<.     ",
"      78)))))12..31)))))9<.     ",
"      0abc))cde..fdg)))hi<.     ",
"      .<<b))j<k..l<m1)no<p.     ",
"      ..<q88r<.....sc8[o...     ",
"    .....tuut......vuuuw....    ",
"    ........................    ",
"    ........................    ",
"    ........................    ",
"    ........................    ",
"    ........................    ",
"    ........................    ",
"    ........................    ",
"    ........................    ",
"    ........................    ",
"    ........................    ",
"    ..  ......    .....   ..    ",
"    .      ...    ...      .    ",
"    .      ...    ...      .    ",
"                                ",
"                                ",
"                                ",
"                                "};
