/* XPM */
static char * ghost_red_up_xpm[] = {
"32 32 63 1",
" 	c None",
".	c #E60012",
"+	c #000000",
"@	c #8F0007",
"#	c #E70012",
"$	c #D0000F",
"%	c #8E0000",
"&	c #E70000",
"*	c #E60011",
"=	c #E60002",
"-	c #E60000",
";	c #CF0000",
">	c #000101",
",	c #010101",
"'	c #DEDEDE",
")	c #DFDFDF",
"!	c #2A2A2A",
"~	c #898282",
"{	c #E0D5D5",
"]	c #E62128",
"^	c #E38889",
"/	c #DFD4D4",
"(	c #C9BEBF",
"_	c #C7C7C7",
":	c #929292",
"<	c #8E8E8E",
"[	c #AFAFAF",
"}	c #E6242A",
"|	c #E38F90",
"1	c #DEDFDF",
"2	c #D1D1D1",
"3	c #8C8C8C",
"4	c #DFD3D3",
"5	c #E62E33",
"6	c #E0C4C5",
"7	c #DEE1E1",
"8	c #DEE0E0",
"9	c #E39091",
"0	c #E0C6C6",
"a	c #E60817",
"b	c #E5474A",
"c	c #E54447",
"d	c #DEDBDB",
"e	c #E1BCBC",
"f	c #E54246",
"g	c #E60515",
"h	c #E62A30",
"i	c #E47C7D",
"j	c #E47B7C",
"k	c #E53D41",
"l	c #E60010",
"m	c #DEDCDC",
"n	c #E1BABA",
"o	c #E46E6F",
"p	c #DEE2E2",
"q	c #E46C6E",
"r	c #E6000F",
"s	c #E46B6D",
"t	c #E46D6E",
"u	c #E5595C",
"v	c #E6000E",
"w	c #E63237",
"x	c #E63136",
"                                ",
"                                ",
"                                ",
"                                ",
"             .......            ",
"         +++@#.....$+++         ",
"         +++%&*..=-;>+,         ",
"       ')!++~{]..^/(+++_'       ",
"       '':<<[)}..|123<324       ",
"      51'))))'}..|1')))'6-.     ",
"      51''''''}..|1'''''6-.     ",
"      578'''18}..971'''10-.     ",
"      abcd''efg..hbi8'8jkl.     ",
"      ..=m88n-.....op8pq...     ",
"   .....rsttuv.....wotox....    ",
"   .........................    ",
"   .........................    ",
"   .........................    ",
"   .........................    ",
"   .........................    ",
"   .........................    ",
"   .........................    ",
"   .........................    ",
"   .........................    ",
"   .........................    ",
"   .......  ........ .......    ",
"     ....     ....     ...      ",
"      ..      ....     ...      ",
"                         .      ",
"                                ",
"                                ",
"                                "};
