/* XPM */
static char * ghost_right2_xpm[] = {
"32 32 82 1",
" 	c None",
".	c #E60012",
"+	c #E60010",
"@	c #E56062",
"#	c #E47E80",
"$	c #E47E7F",
"%	c #E60A18",
"&	c #E60009",
"*	c #E47A7C",
"=	c #E4797A",
"-	c #E6000A",
";	c #E2ABAC",
">	c #DEDFDF",
",	c #E61B23",
"'	c #E60000",
")	c #DED9D9",
"!	c #E0C2C2",
"~	c #E60011",
"{	c #E5585A",
"]	c #E1B3B3",
"^	c #DEDEDE",
"/	c #E55E60",
"(	c #E55B5D",
"_	c #E61720",
":	c #E62B30",
"<	c #E55659",
"[	c #DED8D8",
"}	c #E0C6C6",
"|	c #E55658",
"1	c #E55A5C",
"2	c #E6000E",
"3	c #DEDDDD",
"4	c #DFDFDF",
"5	c #E0E0E0",
"6	c #E0E2E2",
"7	c #E0E4E4",
"8	c #E5484B",
"9	c #E47476",
"0	c #DEE2E2",
"a	c #E0E1E1",
"b	c #DEDBDB",
"c	c #BBBBBB",
"d	c #565656",
"e	c #585858",
"f	c #535959",
"g	c #DE171F",
"h	c #E47374",
"i	c #DEE0E0",
"j	c #7F7F7F",
"k	c #B5B5B5",
"l	c #000000",
"m	c #DD0011",
"n	c #656565",
"o	c #4D0002",
"p	c #E90012",
"q	c #E6000F",
"r	c #E0CACA",
"s	c #DFD6D7",
"t	c #BDBDBD",
"u	c #606060",
"v	c #660609",
"w	c #610003",
"x	c #DF0011",
"y	c #E46A6B",
"z	c #DFCECE",
"A	c #848484",
"B	c #635455",
"C	c #660000",
"D	c #800005",
"E	c #E80012",
"F	c #E2A9AA",
"G	c #E81B24",
"H	c #E60008",
"I	c #DFD7D7",
"J	c #E2C3C3",
"K	c #E80000",
"L	c #E2A6A6",
"M	c #DFD7D8",
"N	c #E61A22",
"O	c #DFD1D2",
"P	c #E1BCBC",
"Q	c #E60112",
"                                ",
"                                ",
"                                ",
"                                ",
"             .......            ",
"         ..............         ",
"         ..............         ",
"       ..................       ",
"       ..+@##$%.....&*##=       ",
"     ....-;>>>,.....')>>!'.     ",
"     ...~{]^^^/(_..:<[^^}|1     ",
"     ...23>^45678..90^^5a66     ",
"     ...2b^^cdefg..hi^5jeee     ",
"     ...2b^^klllm..hi^5nlll     ",
"   .....2b^^klllm..hi^5nllop    ",
"   .....qrs^tuvwx..yz35ABCDE    ",
"   ......'F^45GE...H'I^5JKE.    ",
"   ......-L[[MN.....'O[[P'..    ",
"   .......''''......Q''''Q..    ",
"   .........................    ",
"   .........................    ",
"   .........................    ",
"   .........................    ",
"   .........................    ",
"   .........................    ",
"   ...  ......    .....  ...    ",
"   ..     ....    ...      .    ",
"   ..     ....    ...      .    ",
"           ...    ...      .    ",
"                                ",
"                                ",
"                                "};
