/* XPM */
static char * ghost_red_left_xpm[] = {
"32 32 77 1",
" 	c None",
".	c #E60012",
"+	c #E60011",
"@	c #E29D9E",
"#	c #E47071",
"$	c #E56466",
"%	c #E29E9E",
"&	c #E29E9F",
"*	c #E62E33",
"=	c #DEDFDF",
"-	c #DEDEDE",
";	c #E2A0A1",
">	c #E60010",
",	c #E38F90",
"'	c #DEE0E0",
")	c #E54548",
"!	c #E48384",
"~	c #E1B4B5",
"{	c #E47D7F",
"]	c #E56869",
"^	c #E6000C",
"/	c #E60006",
"(	c #E47879",
"_	c #E2AAAB",
":	c #E3898A",
"<	c #E47F80",
"[	c #E63A3E",
"}	c #DFE0E0",
"|	c #DFDFDF",
"1	c #E1BABA",
"2	c #E60000",
"3	c #E0D6D6",
"4	c #DEE1E1",
"5	c #E46C6E",
"6	c #323232",
"7	c #2E2E2E",
"8	c #DBDBDB",
"9	c #E1B9B9",
"0	c #E80011",
"a	c #5D2F30",
"b	c #757575",
"c	c #E0E0E0",
"d	c #E46B6D",
"e	c #000000",
"f	c #DADADA",
"g	c #E80012",
"h	c #500002",
"i	c #6D6D6D",
"j	c #A6000A",
"k	c #C0000D",
"l	c #89171A",
"m	c #848585",
"n	c #838383",
"o	c #DCDCDC",
"p	c #DFCDCD",
"q	c #E1BBBC",
"r	c #E29B9C",
"s	c #E60002",
"t	c #E70012",
"u	c #960008",
"v	c #875354",
"w	c #9D9D9D",
"x	c #E0BFBF",
"y	c #E0BDBD",
"z	c #E55A5C",
"A	c #E72E33",
"B	c #E29F9F",
"C	c #E49091",
"D	c #E54043",
"E	c #E6000E",
"F	c #E62A2F",
"G	c #DFCECE",
"H	c #E39394",
"I	c #E48485",
"J	c #DFCFCF",
"K	c #E53F43",
"L	c #E6000F",
"                                ",
"                                ",
"                                ",
"                                ",
"             .......            ",
"         ..............         ",
"         ..............         ",
"       ++++.......+++....       ",
"       @@@#+.....$%@&*...       ",
"      *=-=;>.....,=-').....     ",
"      !=--~{]^./(_=-=:<[...     ",
"      }||-==12.23}||-=45...     ",
"      6678--92.0a66bc-'d...     ",
"      eeef--92.gheeic-'d...     ",
"   ..jeeef--92.gheeic-'d....    ",
"   ..klmnopqrs.tuvmw}xyz....    ",
"   ..tA}|-B22...tC}|'D2E....    ",
"   ...FGpGH>.....IGpJK......    ",
"   ...+2222......s222L......    ",
"   .........................    ",
"   .........................    ",
"   .........................    ",
"   .........................    ",
"   .........................    ",
"   .........................    ",
"   .......  ........ .......    ",
"     ...      ....     ...      ",
"      ..      ....     ...      ",
"                                ",
"                                ",
"                                ",
"                                "};
