/* XPM */
static char * ghost_red_down_xpm[] = {
"32 32 63 1",
" 	c None",
".	c #E60012",
"+	c #E6000D",
"@	c #E38C8D",
"#	c #E38E8F",
"$	c #E47577",
"%	c #E6000A",
"&	c #E54347",
"*	c #E38F90",
"=	c #E54246",
"-	c #E60112",
";	c #E60D1A",
">	c #E6000F",
",	c #DEDBDB",
"'	c #DEDFDF",
")	c #E1BABA",
"!	c #E60007",
"~	c #E60515",
"{	c #E46E70",
"]	c #DEE1E1",
"^	c #E46D6E",
"/	c #E60A18",
"(	c #E62E33",
"_	c #DEDDDD",
":	c #DEDEDE",
"<	c #E6232A",
"[	c #E0C3C3",
"}	c #E60000",
"|	c #E6242A",
"1	c #E0C4C5",
"2	c #B2B2B2",
"3	c #B0B0B0",
"4	c #C1C1C1",
"5	c #D5D5D5",
"6	c #AFAFAF",
"7	c #D6D6D6",
"8	c #DFDFDF",
"9	c #282828",
"0	c #000000",
"a	c #888888",
"b	c #C8C8C8",
"c	c #C9C9C9",
"d	c #E6282D",
"e	c #E0C6C6",
"f	c #E1C6C6",
"g	c #2D2727",
"h	c #8A7979",
"i	c #E61E26",
"j	c #E47E7F",
"k	c #CAB1B2",
"l	c #CAB2B2",
"m	c #E1AEAF",
"n	c #E60011",
"o	c #E70000",
"p	c #220000",
"q	c #8B0000",
"r	c #E60004",
"s	c #CF0000",
"t	c #000100",
"u	c #D00000",
"v	c #DF0011",
"w	c #E10011",
"x	c #E50012",
"                                ",
"                                ",
"                                ",
"             ......             ",
"             .......            ",
"         ..............         ",
"         ..............         ",
"       ..................       ",
"      .....................     ",
"      .....................     ",
"      ..+@##$%.....&*#*=...     ",
"      -;>,'')!...~;{]']^/..     ",
"      (__::::_<..#__:::_[}.     ",
"      ('::::::|..*':::::1}.     ",
"   ...('::::::|..*':::::1}..    ",
"   ...(':2334'|..*'563671}..    ",
"   ...('8900a8|..*'b000c1}..    ",
"   ...defg00hfi..jek000lm}..    ",
"   ...n}op00qon..r}st0tu}-..    ",
"   ......vvvw......xvvvx....    ",
"   .........................    ",
"   .........................    ",
"   .........................    ",
"   .........................    ",
"   .........................    ",
"   .......  ........ .......    ",
"     ...      ....     ...      ",
"      ..      ....     ...      ",
"                                ",
"                                ",
"                                ",
"                                "};
